<svg xmlns="http://www.w3.org/2000/svg" xmlns:xlink="http://www.w3.org/1999/xlink" width="1024" zoomAndPan="magnify" viewBox="0 0 768 767.999994" height="1024" preserveAspectRatio="xMidYMid meet" version="1.0"><defs><clipPath id="bf0eab261c"><path d="M 374.058594 401.398438 L 394 401.398438 L 394 421.648438 L 374.058594 421.648438 Z M 374.058594 401.398438 " clip-rule="nonzero"/></clipPath></defs><path fill="#1dbade" d="M 248.601562 271.167969 C 250.449219 271.167969 252.292969 271.078125 254.132812 270.898438 C 255.972656 270.714844 257.796875 270.445312 259.609375 270.085938 C 261.421875 269.722656 263.210938 269.277344 264.980469 268.738281 C 266.746094 268.203125 268.484375 267.582031 270.191406 266.875 C 271.898438 266.167969 273.566406 265.378906 275.195312 264.507812 C 276.828125 263.636719 278.410156 262.6875 279.945312 261.660156 C 281.480469 260.636719 282.964844 259.535156 284.390625 258.363281 C 285.820312 257.191406 287.1875 255.953125 288.496094 254.644531 C 289.800781 253.339844 291.039062 251.972656 292.210938 250.542969 C 293.382812 249.113281 294.484375 247.632812 295.511719 246.097656 C 296.535156 244.558594 297.484375 242.976562 298.355469 241.347656 C 299.226562 239.71875 300.015625 238.050781 300.722656 236.34375 C 301.429688 234.636719 302.050781 232.898438 302.589844 231.128906 C 303.125 229.363281 303.574219 227.574219 303.933594 225.761719 C 304.292969 223.949219 304.566406 222.121094 304.746094 220.285156 C 304.925781 218.445312 305.019531 216.601562 305.019531 214.753906 C 305.019531 212.90625 304.925781 211.0625 304.746094 209.226562 C 304.566406 207.386719 304.292969 205.5625 303.933594 203.75 C 303.574219 201.9375 303.125 200.144531 302.589844 198.378906 C 302.050781 196.609375 301.429688 194.871094 300.722656 193.164062 C 300.015625 191.457031 299.226562 189.789062 298.355469 188.160156 C 297.484375 186.53125 296.535156 184.949219 295.511719 183.414062 C 294.484375 181.875 293.382812 180.394531 292.210938 178.964844 C 291.039062 177.539062 289.800781 176.171875 288.496094 174.863281 C 287.1875 173.558594 285.820312 172.316406 284.390625 171.144531 C 282.964844 169.972656 281.480469 168.875 279.945312 167.847656 C 278.410156 166.820312 276.828125 165.871094 275.195312 165 C 273.566406 164.128906 271.898438 163.339844 270.191406 162.632812 C 268.484375 161.925781 266.746094 161.304688 264.980469 160.769531 C 263.210938 160.234375 261.421875 159.785156 259.609375 159.425781 C 257.796875 159.0625 255.972656 158.792969 254.132812 158.613281 C 252.292969 158.429688 250.449219 158.339844 248.601562 158.339844 C 246.753906 158.339844 244.914062 158.429688 243.074219 158.613281 C 241.234375 158.792969 239.410156 159.0625 237.597656 159.425781 C 235.785156 159.785156 233.996094 160.234375 232.226562 160.769531 C 230.460938 161.304688 228.722656 161.925781 227.015625 162.632812 C 225.308594 163.339844 223.640625 164.128906 222.011719 165 C 220.378906 165.871094 218.796875 166.820312 217.261719 167.847656 C 215.726562 168.875 214.242188 169.972656 212.816406 171.144531 C 211.386719 172.316406 210.019531 173.558594 208.710938 174.863281 C 207.40625 176.171875 206.167969 177.539062 204.996094 178.964844 C 203.824219 180.394531 202.722656 181.875 201.695312 183.414062 C 200.671875 184.949219 199.722656 186.53125 198.851562 188.160156 C 197.980469 189.789062 197.191406 191.457031 196.484375 193.164062 C 195.777344 194.871094 195.15625 196.609375 194.617188 198.378906 C 194.082031 200.144531 193.632812 201.9375 193.273438 203.75 C 192.914062 205.5625 192.640625 207.386719 192.460938 209.226562 C 192.28125 211.0625 192.1875 212.90625 192.1875 214.753906 C 192.1875 216.601562 192.28125 218.445312 192.460938 220.285156 C 192.640625 222.121094 192.914062 223.949219 193.273438 225.761719 C 193.632812 227.574219 194.082031 229.363281 194.617188 231.128906 C 195.15625 232.898438 195.777344 234.636719 196.484375 236.34375 C 197.191406 238.050781 197.980469 239.71875 198.851562 241.347656 C 199.722656 242.976562 200.671875 244.558594 201.695312 246.097656 C 202.722656 247.632812 203.824219 249.113281 204.996094 250.542969 C 206.167969 251.972656 207.40625 253.339844 208.710938 254.644531 C 210.019531 255.953125 211.386719 257.191406 212.816406 258.363281 C 214.242188 259.535156 215.726562 260.636719 217.261719 261.660156 C 218.796875 262.6875 220.378906 263.636719 222.011719 264.507812 C 223.640625 265.378906 225.308594 266.167969 227.015625 266.875 C 228.722656 267.582031 230.460938 268.203125 232.226562 268.738281 C 233.996094 269.277344 235.785156 269.722656 237.597656 270.085938 C 239.410156 270.445312 241.234375 270.714844 243.074219 270.898438 C 244.914062 271.078125 246.753906 271.167969 248.601562 271.167969 Z M 248.601562 180.90625 C 249.710938 180.90625 250.816406 180.960938 251.921875 181.070312 C 253.023438 181.175781 254.121094 181.339844 255.207031 181.554688 C 256.292969 181.773438 257.367188 182.042969 258.429688 182.363281 C 259.488281 182.683594 260.53125 183.058594 261.554688 183.484375 C 262.582031 183.90625 263.582031 184.378906 264.558594 184.902344 C 265.539062 185.425781 266.488281 185.996094 267.410156 186.609375 C 268.332031 187.226562 269.21875 187.886719 270.078125 188.589844 C 270.933594 189.292969 271.753906 190.035156 272.539062 190.820312 C 273.320312 191.605469 274.066406 192.425781 274.769531 193.28125 C 275.472656 194.136719 276.132812 195.027344 276.746094 195.949219 C 277.363281 196.871094 277.933594 197.820312 278.457031 198.796875 C 278.976562 199.777344 279.449219 200.777344 279.875 201.800781 C 280.300781 202.824219 280.671875 203.867188 280.996094 204.929688 C 281.316406 205.988281 281.585938 207.0625 281.800781 208.152344 C 282.019531 209.238281 282.179688 210.332031 282.289062 211.4375 C 282.398438 212.539062 282.453125 213.644531 282.453125 214.753906 C 282.453125 215.863281 282.398438 216.96875 282.289062 218.074219 C 282.179688 219.175781 282.019531 220.269531 281.800781 221.359375 C 281.585938 222.445312 281.316406 223.519531 280.996094 224.582031 C 280.671875 225.640625 280.300781 226.683594 279.875 227.707031 C 279.449219 228.730469 278.976562 229.734375 278.457031 230.710938 C 277.933594 231.6875 277.363281 232.636719 276.746094 233.558594 C 276.132812 234.480469 275.472656 235.371094 274.769531 236.226562 C 274.066406 237.085938 273.320312 237.90625 272.539062 238.6875 C 271.753906 239.472656 270.933594 240.214844 270.078125 240.917969 C 269.21875 241.625 268.332031 242.28125 267.410156 242.898438 C 266.488281 243.515625 265.539062 244.082031 264.558594 244.605469 C 263.582031 245.128906 262.582031 245.601562 261.554688 246.027344 C 260.53125 246.449219 259.488281 246.824219 258.429688 247.144531 C 257.367188 247.46875 256.292969 247.738281 255.207031 247.953125 C 254.121094 248.167969 253.023438 248.332031 251.921875 248.441406 C 250.816406 248.546875 249.710938 248.601562 248.601562 248.601562 C 247.496094 248.601562 246.390625 248.546875 245.285156 248.441406 C 244.183594 248.332031 243.085938 248.167969 242 247.953125 C 240.914062 247.738281 239.839844 247.46875 238.777344 247.144531 C 237.714844 246.824219 236.675781 246.449219 235.648438 246.027344 C 234.625 245.601562 233.625 245.128906 232.648438 244.605469 C 231.667969 244.082031 230.71875 243.515625 229.796875 242.898438 C 228.875 242.28125 227.988281 241.625 227.128906 240.917969 C 226.273438 240.214844 225.453125 239.472656 224.667969 238.6875 C 223.886719 237.90625 223.140625 237.085938 222.4375 236.226562 C 221.734375 235.371094 221.074219 234.480469 220.460938 233.558594 C 219.84375 232.636719 219.273438 231.6875 218.75 230.710938 C 218.230469 229.734375 217.753906 228.730469 217.332031 227.707031 C 216.90625 226.683594 216.535156 225.640625 216.210938 224.582031 C 215.890625 223.519531 215.621094 222.445312 215.40625 221.359375 C 215.1875 220.269531 215.027344 219.175781 214.917969 218.074219 C 214.808594 216.96875 214.753906 215.863281 214.753906 214.753906 C 214.753906 213.644531 214.808594 212.539062 214.917969 211.4375 C 215.027344 210.332031 215.1875 209.238281 215.40625 208.152344 C 215.621094 207.0625 215.890625 205.988281 216.210938 204.929688 C 216.535156 203.867188 216.90625 202.824219 217.332031 201.800781 C 217.753906 200.777344 218.230469 199.777344 218.75 198.796875 C 219.273438 197.820312 219.84375 196.871094 220.460938 195.949219 C 221.074219 195.027344 221.734375 194.136719 222.4375 193.28125 C 223.140625 192.425781 223.886719 191.605469 224.667969 190.820312 C 225.453125 190.035156 226.273438 189.292969 227.128906 188.589844 C 227.988281 187.886719 228.875 187.226562 229.796875 186.609375 C 230.71875 185.996094 231.667969 185.425781 232.648438 184.902344 C 233.625 184.378906 234.625 183.90625 235.648438 183.484375 C 236.675781 183.058594 237.714844 182.683594 238.777344 182.363281 C 239.839844 182.042969 240.914062 181.773438 242 181.554688 C 243.085938 181.339844 244.183594 181.175781 245.285156 181.070312 C 246.390625 180.960938 247.496094 180.90625 248.601562 180.90625 Z M 248.601562 180.90625 " fill-opacity="1" fill-rule="nonzero"/><path fill="#1dbade" d="M 237.320312 282.453125 L 214.753906 282.453125 C 171.203125 282.453125 135.773438 312.800781 135.773438 350.148438 L 135.773438 451.695312 C 135.773438 473.46875 155.179688 491.75 180.90625 495.921875 L 180.90625 643.503906 C 180.90625 644.246094 180.976562 644.976562 181.121094 645.703125 C 181.265625 646.429688 181.480469 647.136719 181.765625 647.820312 C 182.046875 648.503906 182.394531 649.15625 182.808594 649.773438 C 183.21875 650.386719 183.6875 650.957031 184.210938 651.480469 C 184.734375 652.003906 185.304688 652.472656 185.921875 652.882812 C 186.535156 653.296875 187.1875 653.644531 187.871094 653.925781 C 188.554688 654.210938 189.261719 654.425781 189.988281 654.570312 C 190.714844 654.714844 191.449219 654.785156 192.1875 654.785156 C 192.929688 654.785156 193.664062 654.714844 194.390625 654.570312 C 195.117188 654.425781 195.824219 654.210938 196.507812 653.925781 C 197.191406 653.644531 197.839844 653.296875 198.457031 652.882812 C 199.074219 652.472656 199.644531 652.003906 200.167969 651.480469 C 200.691406 650.957031 201.160156 650.386719 201.570312 649.773438 C 201.980469 649.15625 202.328125 648.503906 202.613281 647.820312 C 202.898438 647.136719 203.109375 646.429688 203.253906 645.703125 C 203.398438 644.976562 203.472656 644.246094 203.472656 643.503906 L 203.472656 350.148438 C 203.472656 349.40625 203.398438 348.675781 203.253906 347.949219 C 203.109375 347.222656 202.898438 346.515625 202.613281 345.832031 C 202.328125 345.148438 201.980469 344.496094 201.570312 343.878906 C 201.160156 343.265625 200.691406 342.695312 200.167969 342.171875 C 199.644531 341.648438 199.074219 341.179688 198.457031 340.765625 C 197.839844 340.355469 197.191406 340.007812 196.507812 339.726562 C 195.824219 339.441406 195.117188 339.226562 194.390625 339.082031 C 193.664062 338.9375 192.929688 338.867188 192.1875 338.867188 C 191.449219 338.867188 190.714844 338.9375 189.988281 339.082031 C 189.261719 339.226562 188.554688 339.441406 187.871094 339.726562 C 187.1875 340.007812 186.535156 340.355469 185.921875 340.765625 C 185.304688 341.179688 184.734375 341.648438 184.210938 342.171875 C 183.6875 342.695312 183.21875 343.265625 182.808594 343.878906 C 182.394531 344.496094 182.046875 345.148438 181.765625 345.832031 C 181.480469 346.515625 181.265625 347.222656 181.121094 347.949219 C 180.976562 348.675781 180.90625 349.40625 180.90625 350.148438 L 180.90625 472.792969 C 167.929688 469.632812 158.339844 461.511719 158.339844 451.695312 L 158.339844 350.148438 C 158.339844 325.214844 183.613281 305.015625 214.753906 305.015625 L 237.320312 305.015625 C 238.0625 305.015625 238.796875 304.945312 239.523438 304.800781 C 240.25 304.65625 240.953125 304.441406 241.636719 304.160156 C 242.324219 303.875 242.972656 303.527344 243.589844 303.117188 C 244.203125 302.703125 244.773438 302.238281 245.296875 301.710938 C 245.824219 301.1875 246.289062 300.617188 246.703125 300.003906 C 247.113281 299.386719 247.460938 298.738281 247.746094 298.050781 C 248.027344 297.367188 248.242188 296.664062 248.386719 295.9375 C 248.53125 295.210938 248.601562 294.476562 248.601562 293.734375 C 248.601562 292.992188 248.53125 292.261719 248.386719 291.535156 C 248.242188 290.808594 248.027344 290.101562 247.746094 289.417969 C 247.460938 288.730469 247.113281 288.082031 246.703125 287.464844 C 246.289062 286.851562 245.824219 286.28125 245.296875 285.757812 C 244.773438 285.234375 244.203125 284.765625 243.589844 284.351562 C 242.972656 283.941406 242.324219 283.59375 241.636719 283.3125 C 240.953125 283.027344 240.25 282.8125 239.523438 282.667969 C 238.796875 282.523438 238.0625 282.453125 237.320312 282.453125 Z M 237.320312 282.453125 " fill-opacity="1" fill-rule="nonzero"/><path fill="#1dbade" d="M 237.320312 496.824219 L 237.320312 643.503906 C 237.320312 644.246094 237.394531 644.976562 237.539062 645.703125 C 237.683594 646.429688 237.894531 647.136719 238.179688 647.820312 C 238.460938 648.503906 238.808594 649.15625 239.222656 649.773438 C 239.632812 650.386719 240.101562 650.957031 240.625 651.480469 C 241.148438 652.003906 241.71875 652.472656 242.335938 652.882812 C 242.949219 653.296875 243.601562 653.644531 244.285156 653.925781 C 244.96875 654.210938 245.675781 654.425781 246.402344 654.570312 C 247.128906 654.714844 247.863281 654.785156 248.601562 654.785156 C 249.34375 654.785156 250.078125 654.714844 250.804688 654.570312 C 251.53125 654.425781 252.238281 654.210938 252.921875 653.925781 C 253.605469 653.644531 254.253906 653.296875 254.871094 652.882812 C 255.488281 652.472656 256.058594 652.003906 256.582031 651.480469 C 257.105469 650.957031 257.574219 650.386719 257.984375 649.773438 C 258.394531 649.15625 258.742188 648.503906 259.027344 647.820312 C 259.3125 647.136719 259.523438 646.429688 259.667969 645.703125 C 259.8125 644.976562 259.886719 644.246094 259.886719 643.503906 L 259.886719 496.824219 C 259.886719 496.085938 259.8125 495.351562 259.667969 494.625 C 259.523438 493.898438 259.3125 493.191406 259.027344 492.507812 C 258.742188 491.824219 258.394531 491.171875 257.984375 490.558594 C 257.574219 489.941406 257.105469 489.371094 256.582031 488.847656 C 256.058594 488.324219 255.488281 487.855469 254.871094 487.445312 C 254.253906 487.03125 253.605469 486.6875 252.921875 486.402344 C 252.238281 486.117188 251.53125 485.90625 250.804688 485.761719 C 250.078125 485.617188 249.34375 485.542969 248.601562 485.542969 C 247.863281 485.542969 247.128906 485.617188 246.402344 485.761719 C 245.675781 485.90625 244.96875 486.117188 244.285156 486.402344 C 243.601562 486.6875 242.949219 487.03125 242.335938 487.445312 C 241.71875 487.855469 241.148438 488.324219 240.625 488.847656 C 240.101562 489.371094 239.632812 489.941406 239.222656 490.558594 C 238.808594 491.171875 238.460938 491.824219 238.179688 492.507812 C 237.894531 493.191406 237.683594 493.898438 237.539062 494.625 C 237.394531 495.351562 237.320312 496.085938 237.320312 496.824219 Z M 237.320312 496.824219 " fill-opacity="1" fill-rule="nonzero"/><path fill="#1dbade" d="M 383.996094 248.601562 C 385.105469 248.601562 386.210938 248.574219 387.320312 248.523438 C 388.425781 248.46875 389.53125 248.386719 390.632812 248.277344 C 391.734375 248.167969 392.835938 248.03125 393.929688 247.871094 C 395.027344 247.707031 396.117188 247.519531 397.203125 247.300781 C 398.292969 247.085938 399.371094 246.84375 400.445312 246.574219 C 401.523438 246.304688 402.589844 246.007812 403.648438 245.6875 C 404.710938 245.367188 405.761719 245.019531 406.804688 244.644531 C 407.847656 244.273438 408.878906 243.875 409.902344 243.449219 C 410.929688 243.027344 411.941406 242.578125 412.941406 242.101562 C 413.945312 241.628906 414.933594 241.132812 415.910156 240.609375 C 416.886719 240.085938 417.851562 239.542969 418.800781 238.972656 C 419.75 238.402344 420.6875 237.808594 421.609375 237.195312 C 422.53125 236.578125 423.433594 235.941406 424.324219 235.28125 C 425.214844 234.621094 426.089844 233.9375 426.945312 233.238281 C 427.800781 232.535156 428.640625 231.808594 429.460938 231.066406 C 430.28125 230.320312 431.082031 229.558594 431.867188 228.773438 C 432.648438 227.992188 433.414062 227.191406 434.15625 226.367188 C 434.902344 225.546875 435.625 224.710938 436.328125 223.851562 C 437.03125 222.996094 437.710938 222.121094 438.371094 221.234375 C 439.03125 220.34375 439.671875 219.4375 440.285156 218.515625 C 440.902344 217.59375 441.492188 216.660156 442.0625 215.710938 C 442.632812 214.757812 443.179688 213.796875 443.703125 212.816406 C 444.222656 211.839844 444.722656 210.851562 445.195312 209.851562 C 445.667969 208.847656 446.117188 207.835938 446.542969 206.8125 C 446.964844 205.789062 447.363281 204.753906 447.738281 203.710938 C 448.109375 202.667969 448.457031 201.617188 448.78125 200.558594 C 449.101562 199.496094 449.398438 198.429688 449.667969 197.355469 C 449.933594 196.28125 450.179688 195.199219 450.394531 194.113281 C 450.609375 193.027344 450.800781 191.933594 450.960938 190.839844 C 451.125 189.742188 451.261719 188.644531 451.367188 187.542969 C 451.476562 186.4375 451.558594 185.335938 451.613281 184.226562 C 451.667969 183.121094 451.695312 182.015625 451.695312 180.90625 C 451.695312 179.796875 451.667969 178.691406 451.613281 177.585938 C 451.558594 176.476562 451.476562 175.375 451.367188 174.269531 C 451.261719 173.167969 451.125 172.070312 450.960938 170.972656 C 450.800781 169.875 450.609375 168.785156 450.394531 167.699219 C 450.179688 166.613281 449.933594 165.53125 449.667969 164.457031 C 449.398438 163.382812 449.101562 162.316406 448.78125 161.253906 C 448.457031 160.195312 448.109375 159.144531 447.738281 158.097656 C 447.363281 157.054688 446.964844 156.023438 446.542969 155 C 446.117188 153.976562 445.667969 152.964844 445.195312 151.960938 C 444.722656 150.960938 444.222656 149.972656 443.703125 148.992188 C 443.179688 148.015625 442.632812 147.054688 442.0625 146.101562 C 441.492188 145.152344 440.902344 144.214844 440.285156 143.296875 C 439.671875 142.375 439.03125 141.46875 438.371094 140.578125 C 437.710938 139.6875 437.03125 138.816406 436.328125 137.960938 C 435.625 137.101562 434.902344 136.265625 434.15625 135.441406 C 433.414062 134.621094 432.648438 133.820312 431.867188 133.035156 C 431.082031 132.253906 430.28125 131.488281 429.460938 130.746094 C 428.640625 130 427.800781 129.277344 426.945312 128.574219 C 426.089844 127.871094 425.214844 127.191406 424.324219 126.53125 C 423.433594 125.871094 422.53125 125.234375 421.609375 124.617188 C 420.6875 124.003906 419.75 123.410156 418.800781 122.839844 C 417.851562 122.269531 416.886719 121.726562 415.910156 121.203125 C 414.933594 120.679688 413.945312 120.183594 412.941406 119.707031 C 411.941406 119.234375 410.929688 118.785156 409.902344 118.363281 C 408.878906 117.9375 407.847656 117.539062 406.804688 117.167969 C 405.761719 116.792969 404.710938 116.445312 403.648438 116.125 C 402.589844 115.800781 401.523438 115.507812 400.445312 115.238281 C 399.371094 114.96875 398.292969 114.726562 397.203125 114.507812 C 396.117188 114.292969 395.027344 114.105469 393.929688 113.941406 C 392.835938 113.777344 391.734375 113.644531 390.632812 113.535156 C 389.53125 113.425781 388.425781 113.34375 387.320312 113.289062 C 386.210938 113.234375 385.105469 113.207031 383.996094 113.207031 C 382.890625 113.207031 381.78125 113.234375 380.675781 113.289062 C 379.570312 113.34375 378.464844 113.425781 377.363281 113.535156 C 376.257812 113.644531 375.160156 113.777344 374.066406 113.941406 C 372.96875 114.105469 371.878906 114.292969 370.789062 114.507812 C 369.703125 114.726562 368.625 114.96875 367.546875 115.238281 C 366.472656 115.507812 365.40625 115.800781 364.347656 116.125 C 363.285156 116.445312 362.234375 116.792969 361.191406 117.167969 C 360.148438 117.539062 359.113281 117.9375 358.089844 118.363281 C 357.066406 118.785156 356.054688 119.234375 355.054688 119.707031 C 354.050781 120.183594 353.0625 120.679688 352.085938 121.203125 C 351.109375 121.726562 350.144531 122.269531 349.195312 122.839844 C 348.242188 123.410156 347.308594 124.003906 346.386719 124.617188 C 345.464844 125.234375 344.558594 125.871094 343.671875 126.53125 C 342.78125 127.191406 341.90625 127.871094 341.050781 128.574219 C 340.195312 129.277344 339.355469 130 338.535156 130.746094 C 337.714844 131.488281 336.910156 132.253906 336.128906 133.035156 C 335.34375 133.820312 334.582031 134.621094 333.835938 135.441406 C 333.09375 136.265625 332.371094 137.101562 331.667969 137.960938 C 330.964844 138.816406 330.28125 139.6875 329.621094 140.578125 C 328.960938 141.46875 328.324219 142.375 327.710938 143.296875 C 327.09375 144.214844 326.5 145.152344 325.933594 146.101562 C 325.363281 147.054688 324.816406 148.015625 324.292969 148.992188 C 323.773438 149.972656 323.273438 150.960938 322.800781 151.960938 C 322.328125 152.964844 321.878906 153.976562 321.453125 155 C 321.03125 156.023438 320.632812 157.054688 320.257812 158.097656 C 319.882812 159.144531 319.539062 160.195312 319.214844 161.253906 C 318.894531 162.316406 318.597656 163.382812 318.328125 164.457031 C 318.058594 165.53125 317.816406 166.613281 317.601562 167.699219 C 317.386719 168.785156 317.195312 169.875 317.035156 170.972656 C 316.871094 172.070312 316.734375 173.167969 316.625 174.269531 C 316.519531 175.375 316.4375 176.476562 316.382812 177.585938 C 316.328125 178.691406 316.300781 179.796875 316.300781 180.90625 C 316.300781 182.015625 316.328125 183.121094 316.382812 184.226562 C 316.4375 185.335938 316.519531 186.4375 316.625 187.542969 C 316.734375 188.644531 316.871094 189.742188 317.035156 190.839844 C 317.195312 191.933594 317.386719 193.027344 317.601562 194.113281 C 317.816406 195.199219 318.058594 196.28125 318.328125 197.355469 C 318.597656 198.429688 318.894531 199.496094 319.214844 200.558594 C 319.539062 201.617188 319.882812 202.667969 320.257812 203.710938 C 320.632812 204.753906 321.03125 205.789062 321.453125 206.8125 C 321.878906 207.835938 322.328125 208.847656 322.800781 209.851562 C 323.273438 210.851562 323.773438 211.839844 324.292969 212.816406 C 324.816406 213.796875 325.363281 214.757812 325.933594 215.710938 C 326.5 216.660156 327.09375 217.59375 327.710938 218.515625 C 328.324219 219.4375 328.960938 220.34375 329.621094 221.234375 C 330.28125 222.121094 330.964844 222.996094 331.667969 223.851562 C 332.371094 224.710938 333.09375 225.546875 333.835938 226.367188 C 334.582031 227.191406 335.34375 227.992188 336.128906 228.773438 C 336.910156 229.558594 337.714844 230.320312 338.535156 231.066406 C 339.355469 231.808594 340.195312 232.535156 341.050781 233.238281 C 341.90625 233.9375 342.78125 234.621094 343.671875 235.28125 C 344.558594 235.941406 345.464844 236.578125 346.386719 237.195312 C 347.308594 237.808594 348.242188 238.402344 349.195312 238.972656 C 350.144531 239.542969 351.109375 240.085938 352.085938 240.609375 C 353.0625 241.132812 354.050781 241.628906 355.054688 242.101562 C 356.054688 242.578125 357.066406 243.027344 358.089844 243.449219 C 359.113281 243.875 360.148438 244.273438 361.191406 244.644531 C 362.234375 245.019531 363.285156 245.367188 364.347656 245.6875 C 365.40625 246.007812 366.472656 246.304688 367.546875 246.574219 C 368.625 246.84375 369.703125 247.085938 370.789062 247.300781 C 371.878906 247.519531 372.96875 247.707031 374.066406 247.871094 C 375.160156 248.03125 376.257812 248.167969 377.363281 248.277344 C 378.464844 248.386719 379.570312 248.46875 380.675781 248.523438 C 381.78125 248.574219 382.890625 248.601562 383.996094 248.601562 Z M 383.996094 135.773438 C 385.476562 135.773438 386.949219 135.847656 388.421875 135.992188 C 389.890625 136.136719 391.351562 136.351562 392.800781 136.640625 C 394.253906 136.929688 395.683594 137.289062 397.097656 137.71875 C 398.511719 138.148438 399.902344 138.644531 401.269531 139.210938 C 402.632812 139.777344 403.96875 140.40625 405.273438 141.105469 C 406.574219 141.800781 407.84375 142.558594 409.070312 143.378906 C 410.300781 144.203125 411.484375 145.082031 412.628906 146.019531 C 413.769531 146.957031 414.867188 147.949219 415.910156 148.992188 C 416.957031 150.039062 417.945312 151.132812 418.886719 152.273438 C 419.824219 153.417969 420.703125 154.601562 421.523438 155.832031 C 422.34375 157.0625 423.101562 158.328125 423.800781 159.632812 C 424.496094 160.933594 425.128906 162.269531 425.695312 163.636719 C 426.257812 165 426.757812 166.390625 427.1875 167.804688 C 427.613281 169.21875 427.972656 170.652344 428.261719 172.101562 C 428.550781 173.550781 428.765625 175.011719 428.910156 176.480469 C 429.058594 177.953125 429.128906 179.429688 429.128906 180.90625 C 429.128906 182.382812 429.058594 183.859375 428.910156 185.328125 C 428.765625 186.800781 428.550781 188.261719 428.261719 189.710938 C 427.972656 191.160156 427.613281 192.59375 427.1875 194.007812 C 426.757812 195.421875 426.257812 196.8125 425.695312 198.175781 C 425.128906 199.542969 424.496094 200.878906 423.800781 202.179688 C 423.101562 203.484375 422.34375 204.75 421.523438 205.980469 C 420.703125 207.207031 419.824219 208.394531 418.886719 209.535156 C 417.945312 210.679688 416.957031 211.773438 415.910156 212.820312 C 414.867188 213.863281 413.769531 214.855469 412.628906 215.792969 C 411.484375 216.730469 410.300781 217.609375 409.070312 218.429688 C 407.84375 219.253906 406.574219 220.011719 405.273438 220.707031 C 403.96875 221.40625 402.632812 222.035156 401.269531 222.601562 C 399.902344 223.167969 398.511719 223.664062 397.097656 224.09375 C 395.683594 224.523438 394.253906 224.882812 392.800781 225.171875 C 391.351562 225.457031 389.890625 225.675781 388.421875 225.820312 C 386.949219 225.964844 385.476562 226.039062 383.996094 226.039062 C 382.519531 226.039062 381.046875 225.964844 379.574219 225.820312 C 378.101562 225.675781 376.644531 225.457031 375.191406 225.171875 C 373.742188 224.882812 372.3125 224.523438 370.898438 224.09375 C 369.480469 223.664062 368.09375 223.167969 366.726562 222.601562 C 365.359375 222.035156 364.027344 221.40625 362.722656 220.707031 C 361.417969 220.011719 360.152344 219.253906 358.925781 218.429688 C 357.695312 217.609375 356.507812 216.730469 355.367188 215.792969 C 354.222656 214.855469 353.128906 213.863281 352.085938 212.820312 C 351.039062 211.773438 350.046875 210.679688 349.109375 209.535156 C 348.171875 208.394531 347.292969 207.207031 346.472656 205.980469 C 345.652344 204.75 344.890625 203.484375 344.195312 202.179688 C 343.5 200.878906 342.867188 199.542969 342.300781 198.175781 C 341.734375 196.8125 341.238281 195.421875 340.808594 194.007812 C 340.378906 192.59375 340.023438 191.160156 339.734375 189.710938 C 339.445312 188.261719 339.226562 186.800781 339.082031 185.328125 C 338.9375 183.859375 338.867188 182.382812 338.867188 180.90625 C 338.867188 179.429688 338.9375 177.953125 339.082031 176.480469 C 339.226562 175.011719 339.445312 173.550781 339.734375 172.101562 C 340.023438 170.652344 340.378906 169.21875 340.808594 167.804688 C 341.238281 166.390625 341.734375 165 342.300781 163.636719 C 342.867188 162.269531 343.5 160.933594 344.195312 159.632812 C 344.890625 158.328125 345.652344 157.0625 346.472656 155.832031 C 347.292969 154.601562 348.171875 153.417969 349.109375 152.273438 C 350.046875 151.132812 351.039062 150.039062 352.085938 148.992188 C 353.128906 147.949219 354.222656 146.957031 355.367188 146.019531 C 356.507812 145.082031 357.695312 144.203125 358.925781 143.378906 C 360.152344 142.558594 361.417969 141.800781 362.722656 141.105469 C 364.027344 140.40625 365.359375 139.777344 366.726562 139.210938 C 368.09375 138.644531 369.480469 138.148438 370.898438 137.71875 C 372.3125 137.289062 373.742188 136.929688 375.191406 136.640625 C 376.644531 136.351562 378.101562 136.136719 379.574219 135.992188 C 381.046875 135.847656 382.519531 135.773438 383.996094 135.773438 Z M 383.996094 135.773438 " fill-opacity="1" fill-rule="nonzero"/><path fill="#1dbade" d="M 429.128906 259.886719 L 338.867188 259.886719 C 295.3125 259.886719 259.886719 290.238281 259.886719 327.582031 L 259.886719 395.28125 C 259.886719 396.390625 259.941406 397.496094 260.050781 398.597656 C 260.15625 399.703125 260.320312 400.796875 260.535156 401.882812 C 260.753906 402.972656 261.023438 404.046875 261.34375 405.105469 C 261.664062 406.167969 262.039062 407.210938 262.460938 408.234375 C 262.886719 409.257812 263.359375 410.257812 263.882812 411.238281 C 264.40625 412.214844 264.976562 413.164062 265.589844 414.085938 C 266.207031 415.007812 266.867188 415.898438 267.570312 416.753906 C 268.273438 417.609375 269.015625 418.429688 269.800781 419.214844 C 270.585938 420 271.40625 420.742188 272.261719 421.445312 C 273.117188 422.148438 274.007812 422.808594 274.929688 423.425781 C 275.851562 424.039062 276.800781 424.609375 277.777344 425.132812 C 278.757812 425.65625 279.757812 426.128906 280.78125 426.550781 C 281.804688 426.976562 282.847656 427.347656 283.910156 427.671875 C 284.96875 427.992188 286.042969 428.261719 287.132812 428.480469 C 288.21875 428.695312 289.3125 428.855469 290.417969 428.964844 C 291.519531 429.074219 292.625 429.128906 293.734375 429.128906 L 305.019531 429.128906 L 305.019531 643.503906 C 305.019531 644.246094 305.089844 644.976562 305.234375 645.703125 C 305.378906 646.429688 305.59375 647.136719 305.875 647.820312 C 306.160156 648.503906 306.507812 649.15625 306.917969 649.773438 C 307.332031 650.386719 307.796875 650.957031 308.324219 651.480469 C 308.847656 652.003906 309.417969 652.472656 310.03125 652.882812 C 310.648438 653.296875 311.296875 653.644531 311.984375 653.925781 C 312.667969 654.210938 313.371094 654.425781 314.097656 654.570312 C 314.824219 654.714844 315.558594 654.785156 316.300781 654.785156 C 317.042969 654.785156 317.773438 654.714844 318.5 654.570312 C 319.226562 654.425781 319.933594 654.210938 320.617188 653.925781 C 321.304688 653.644531 321.953125 653.296875 322.570312 652.882812 C 323.183594 652.472656 323.753906 652.003906 324.277344 651.480469 C 324.800781 650.957031 325.269531 650.386719 325.683594 649.773438 C 326.09375 649.15625 326.441406 648.503906 326.722656 647.820312 C 327.007812 647.136719 327.222656 646.429688 327.367188 645.703125 C 327.511719 644.976562 327.582031 644.246094 327.582031 643.503906 L 327.582031 429.128906 L 440.410156 429.128906 L 440.410156 643.503906 C 440.410156 644.246094 440.484375 644.976562 440.628906 645.703125 C 440.773438 646.429688 440.988281 647.136719 441.269531 647.820312 C 441.554688 648.503906 441.902344 649.15625 442.3125 649.773438 C 442.726562 650.386719 443.191406 650.957031 443.714844 651.480469 C 444.242188 652.003906 444.808594 652.472656 445.425781 652.882812 C 446.042969 653.296875 446.691406 653.644531 447.378906 653.925781 C 448.0625 654.210938 448.765625 654.425781 449.492188 654.570312 C 450.21875 654.714844 450.953125 654.785156 451.695312 654.785156 C 452.4375 654.785156 453.167969 654.714844 453.894531 654.570312 C 454.621094 654.425781 455.328125 654.210938 456.011719 653.925781 C 456.695312 653.644531 457.347656 653.296875 457.964844 652.882812 C 458.578125 652.472656 459.148438 652.003906 459.671875 651.480469 C 460.195312 650.957031 460.664062 650.386719 461.078125 649.773438 C 461.488281 649.15625 461.835938 648.503906 462.117188 647.820312 C 462.402344 647.136719 462.617188 646.429688 462.761719 645.703125 C 462.90625 644.976562 462.976562 644.246094 462.976562 643.503906 L 462.976562 429.128906 L 474.261719 429.128906 C 475.371094 429.128906 476.476562 429.074219 477.578125 428.964844 C 478.683594 428.855469 479.777344 428.695312 480.863281 428.480469 C 481.953125 428.261719 483.027344 427.992188 484.085938 427.671875 C 485.148438 427.347656 486.191406 426.976562 487.214844 426.550781 C 488.238281 426.128906 489.238281 425.65625 490.214844 425.132812 C 491.195312 424.609375 492.144531 424.039062 493.066406 423.425781 C 493.988281 422.808594 494.878906 422.148438 495.734375 421.445312 C 496.589844 420.742188 497.410156 420 498.195312 419.214844 C 498.980469 418.429688 499.722656 417.609375 500.425781 416.753906 C 501.128906 415.898438 501.789062 415.007812 502.40625 414.085938 C 503.019531 413.164062 503.589844 412.214844 504.113281 411.238281 C 504.636719 410.257812 505.109375 409.257812 505.53125 408.234375 C 505.957031 407.210938 506.328125 406.167969 506.652344 405.105469 C 506.972656 404.046875 507.242188 402.972656 507.457031 401.882812 C 507.675781 400.796875 507.835938 399.703125 507.945312 398.597656 C 508.054688 397.496094 508.109375 396.390625 508.109375 395.28125 L 508.109375 327.582031 C 508.109375 290.238281 472.679688 259.886719 429.128906 259.886719 Z M 474.261719 406.5625 L 420.214844 406.5625 L 327.582031 365.378906 L 327.582031 362.785156 L 416.605469 372.601562 L 451.695312 372.601562 C 452.4375 372.601562 453.167969 372.53125 453.894531 372.386719 C 454.621094 372.242188 455.328125 372.027344 456.011719 371.742188 C 456.695312 371.460938 457.347656 371.113281 457.964844 370.699219 C 458.578125 370.289062 459.148438 369.820312 459.671875 369.296875 C 460.195312 368.773438 460.664062 368.203125 461.078125 367.585938 C 461.488281 366.972656 461.835938 366.320312 462.117188 365.636719 C 462.402344 364.953125 462.617188 364.246094 462.761719 363.519531 C 462.90625 362.792969 462.976562 362.058594 462.976562 361.320312 L 462.976562 338.867188 C 462.976562 338.125 462.90625 337.390625 462.761719 336.664062 C 462.617188 335.9375 462.402344 335.234375 462.117188 334.546875 C 461.835938 333.863281 461.488281 333.214844 461.078125 332.597656 C 460.664062 331.980469 460.195312 331.410156 459.671875 330.886719 C 459.148438 330.363281 458.578125 329.894531 457.964844 329.484375 C 457.347656 329.074219 456.695312 328.726562 456.011719 328.441406 C 455.328125 328.160156 454.621094 327.945312 453.894531 327.800781 C 453.167969 327.65625 452.4375 327.582031 451.695312 327.582031 C 450.953125 327.582031 450.21875 327.65625 449.492188 327.800781 C 448.765625 327.945312 448.0625 328.160156 447.378906 328.441406 C 446.691406 328.726562 446.042969 329.074219 445.425781 329.484375 C 444.808594 329.894531 444.242188 330.363281 443.714844 330.886719 C 443.191406 331.410156 442.726562 331.980469 442.3125 332.597656 C 441.902344 333.214844 441.554688 333.863281 441.269531 334.546875 C 440.988281 335.234375 440.773438 335.9375 440.628906 336.664062 C 440.484375 337.390625 440.410156 338.125 440.410156 338.867188 L 440.410156 350.148438 L 418.523438 350.148438 L 327.582031 340.105469 L 327.582031 338.867188 C 327.582031 338.125 327.511719 337.390625 327.367188 336.664062 C 327.222656 335.9375 327.007812 335.234375 326.722656 334.546875 C 326.441406 333.863281 326.09375 333.214844 325.683594 332.597656 C 325.269531 331.980469 324.800781 331.410156 324.277344 330.886719 C 323.753906 330.363281 323.183594 329.894531 322.570312 329.484375 C 321.953125 329.074219 321.304688 328.726562 320.617188 328.441406 C 319.933594 328.160156 319.226562 327.945312 318.5 327.800781 C 317.773438 327.65625 317.042969 327.582031 316.300781 327.582031 C 315.558594 327.582031 314.824219 327.65625 314.097656 327.800781 C 313.371094 327.945312 312.667969 328.160156 311.984375 328.441406 C 311.296875 328.726562 310.648438 329.074219 310.03125 329.484375 C 309.417969 329.894531 308.847656 330.363281 308.324219 330.886719 C 307.796875 331.410156 307.332031 331.980469 306.917969 332.597656 C 306.507812 333.214844 306.160156 333.863281 305.875 334.546875 C 305.59375 335.234375 305.378906 335.9375 305.234375 336.664062 C 305.089844 337.390625 305.019531 338.125 305.019531 338.867188 L 305.019531 372.714844 C 304.964844 373.203125 304.964844 373.691406 305.019531 374.179688 C 304.84375 375.085938 304.84375 375.988281 305.019531 376.890625 C 305.308594 377.578125 305.683594 378.21875 306.144531 378.808594 C 306.457031 379.414062 306.832031 379.980469 307.273438 380.5 C 307.964844 381.203125 308.753906 381.769531 309.644531 382.191406 C 309.644531 382.191406 310.320312 382.871094 310.773438 382.980469 L 364.703125 406.5625 L 293.734375 406.5625 C 292.992188 406.5625 292.261719 406.492188 291.535156 406.347656 C 290.808594 406.203125 290.101562 405.988281 289.417969 405.703125 C 288.734375 405.421875 288.082031 405.074219 287.464844 404.660156 C 286.851562 404.25 286.28125 403.78125 285.757812 403.257812 C 285.234375 402.734375 284.765625 402.164062 284.351562 401.546875 C 283.941406 400.933594 283.59375 400.28125 283.3125 399.597656 C 283.027344 398.914062 282.8125 398.207031 282.667969 397.480469 C 282.523438 396.753906 282.453125 396.019531 282.453125 395.28125 L 282.453125 327.582031 C 282.453125 302.648438 307.726562 282.453125 338.867188 282.453125 L 429.128906 282.453125 C 460.269531 282.453125 485.542969 302.648438 485.542969 327.582031 L 485.542969 395.28125 C 485.542969 396.019531 485.472656 396.753906 485.328125 397.480469 C 485.183594 398.207031 484.96875 398.914062 484.683594 399.597656 C 484.402344 400.28125 484.054688 400.933594 483.640625 401.546875 C 483.230469 402.164062 482.761719 402.734375 482.238281 403.257812 C 481.714844 403.78125 481.144531 404.25 480.527344 404.660156 C 479.914062 405.074219 479.261719 405.421875 478.578125 405.703125 C 477.894531 405.988281 477.1875 406.203125 476.460938 406.347656 C 475.734375 406.492188 475 406.5625 474.261719 406.5625 Z M 474.261719 406.5625 " fill-opacity="1" fill-rule="nonzero"/><path fill="#1dbade" d="M 372.714844 496.824219 L 372.714844 643.503906 C 372.714844 644.246094 372.789062 644.976562 372.933594 645.703125 C 373.074219 646.429688 373.289062 647.136719 373.574219 647.820312 C 373.855469 648.503906 374.203125 649.15625 374.617188 649.773438 C 375.027344 650.386719 375.496094 650.957031 376.019531 651.480469 C 376.542969 652.003906 377.113281 652.472656 377.730469 652.882812 C 378.34375 653.296875 378.996094 653.644531 379.679688 653.925781 C 380.363281 654.210938 381.070312 654.425781 381.796875 654.570312 C 382.523438 654.714844 383.257812 654.785156 383.996094 654.785156 C 384.738281 654.785156 385.472656 654.714844 386.199219 654.570312 C 386.925781 654.425781 387.632812 654.210938 388.316406 653.925781 C 389 653.644531 389.648438 653.296875 390.265625 652.882812 C 390.882812 652.472656 391.453125 652.003906 391.976562 651.480469 C 392.5 650.957031 392.96875 650.386719 393.378906 649.773438 C 393.789062 649.15625 394.136719 648.503906 394.421875 647.820312 C 394.707031 647.136719 394.917969 646.429688 395.0625 645.703125 C 395.207031 644.976562 395.28125 644.246094 395.28125 643.503906 L 395.28125 496.824219 C 395.28125 496.085938 395.207031 495.351562 395.0625 494.625 C 394.917969 493.898438 394.707031 493.191406 394.421875 492.507812 C 394.136719 491.824219 393.789062 491.171875 393.378906 490.558594 C 392.96875 489.941406 392.5 489.371094 391.976562 488.847656 C 391.453125 488.324219 390.882812 487.855469 390.265625 487.445312 C 389.648438 487.03125 389 486.6875 388.316406 486.402344 C 387.632812 486.117188 386.925781 485.90625 386.199219 485.761719 C 385.472656 485.617188 384.738281 485.542969 383.996094 485.542969 C 383.257812 485.542969 382.523438 485.617188 381.796875 485.761719 C 381.070312 485.90625 380.363281 486.117188 379.679688 486.402344 C 378.996094 486.6875 378.34375 487.03125 377.730469 487.445312 C 377.113281 487.855469 376.542969 488.324219 376.019531 488.847656 C 375.496094 489.371094 375.027344 489.941406 374.617188 490.558594 C 374.203125 491.171875 373.855469 491.824219 373.574219 492.507812 C 373.289062 493.191406 373.074219 493.898438 372.933594 494.625 C 372.789062 495.351562 372.714844 496.085938 372.714844 496.824219 Z M 372.714844 496.824219 " fill-opacity="1" fill-rule="nonzero"/><path fill="#1dbade" d="M 124.492188 293.734375 C 126.15625 293.734375 127.8125 293.652344 129.46875 293.488281 C 131.125 293.328125 132.765625 293.082031 134.398438 292.757812 C 136.027344 292.433594 137.640625 292.03125 139.230469 291.546875 C 140.820312 291.066406 142.386719 290.507812 143.921875 289.871094 C 145.457031 289.234375 146.960938 288.523438 148.425781 287.738281 C 149.890625 286.957031 151.316406 286.101562 152.699219 285.179688 C 154.082031 284.253906 155.417969 283.265625 156.703125 282.210938 C 157.988281 281.15625 159.21875 280.039062 160.394531 278.863281 C 161.570312 277.6875 162.683594 276.457031 163.738281 275.171875 C 164.792969 273.886719 165.785156 272.550781 166.707031 271.167969 C 167.632812 269.785156 168.484375 268.363281 169.269531 266.894531 C 170.054688 265.429688 170.761719 263.929688 171.398438 262.390625 C 172.035156 260.855469 172.597656 259.292969 173.078125 257.699219 C 173.5625 256.109375 173.964844 254.496094 174.289062 252.867188 C 174.613281 251.234375 174.855469 249.59375 175.019531 247.9375 C 175.183594 246.285156 175.265625 244.625 175.265625 242.960938 C 175.265625 241.300781 175.183594 239.640625 175.019531 237.984375 C 174.855469 236.332031 174.613281 234.6875 174.289062 233.054688 C 173.964844 231.425781 173.5625 229.8125 173.078125 228.222656 C 172.597656 226.632812 172.035156 225.066406 171.398438 223.53125 C 170.761719 221.996094 170.054688 220.492188 169.269531 219.027344 C 168.484375 217.5625 167.632812 216.136719 166.707031 214.753906 C 165.785156 213.371094 164.792969 212.039062 163.738281 210.75 C 162.683594 209.464844 161.570312 208.234375 160.394531 207.058594 C 159.21875 205.882812 157.988281 204.769531 156.703125 203.714844 C 155.417969 202.660156 154.082031 201.667969 152.699219 200.746094 C 151.316406 199.820312 149.890625 198.96875 148.425781 198.183594 C 146.960938 197.398438 145.457031 196.691406 143.921875 196.054688 C 142.386719 195.417969 140.820312 194.859375 139.230469 194.375 C 137.640625 193.890625 136.027344 193.488281 134.398438 193.164062 C 132.765625 192.839844 131.125 192.597656 129.46875 192.433594 C 127.8125 192.269531 126.15625 192.1875 124.492188 192.1875 C 122.828125 192.1875 121.171875 192.269531 119.515625 192.433594 C 117.859375 192.597656 116.21875 192.839844 114.585938 193.164062 C 112.957031 193.488281 111.34375 193.890625 109.753906 194.375 C 108.160156 194.859375 106.597656 195.417969 105.0625 196.054688 C 103.527344 196.691406 102.023438 197.398438 100.558594 198.183594 C 99.089844 198.96875 97.667969 199.820312 96.285156 200.746094 C 94.902344 201.667969 93.566406 202.660156 92.28125 203.714844 C 90.996094 204.769531 89.765625 205.882812 88.589844 207.058594 C 87.414062 208.234375 86.296875 209.464844 85.242188 210.75 C 84.1875 212.039062 83.199219 213.371094 82.277344 214.753906 C 81.351562 216.136719 80.496094 217.5625 79.714844 219.027344 C 78.929688 220.492188 78.21875 221.996094 77.582031 223.53125 C 76.949219 225.066406 76.386719 226.632812 75.90625 228.222656 C 75.421875 229.8125 75.019531 231.425781 74.695312 233.054688 C 74.371094 234.6875 74.125 236.332031 73.964844 237.984375 C 73.800781 239.640625 73.71875 241.300781 73.71875 242.960938 C 73.722656 244.625 73.808594 246.28125 73.972656 247.933594 C 74.140625 249.589844 74.386719 251.230469 74.714844 252.859375 C 75.039062 254.488281 75.445312 256.097656 75.929688 257.6875 C 76.414062 259.277344 76.976562 260.839844 77.613281 262.375 C 78.25 263.910156 78.960938 265.410156 79.746094 266.875 C 80.53125 268.339844 81.386719 269.761719 82.308594 271.144531 C 83.234375 272.523438 84.222656 273.855469 85.277344 275.140625 C 86.332031 276.425781 87.449219 277.65625 88.621094 278.832031 C 89.796875 280.003906 91.027344 281.121094 92.3125 282.175781 C 93.597656 283.230469 94.929688 284.21875 96.3125 285.144531 C 97.691406 286.066406 99.113281 286.921875 100.578125 287.707031 C 102.046875 288.492188 103.542969 289.203125 105.078125 289.839844 C 106.613281 290.476562 108.175781 291.039062 109.765625 291.523438 C 111.355469 292.007812 112.964844 292.414062 114.59375 292.742188 C 116.222656 293.066406 117.863281 293.3125 119.519531 293.480469 C 121.171875 293.644531 122.828125 293.730469 124.492188 293.734375 Z M 124.492188 214.753906 C 125.414062 214.753906 126.335938 214.800781 127.257812 214.890625 C 128.175781 214.980469 129.089844 215.117188 129.996094 215.296875 C 130.902344 215.476562 131.796875 215.699219 132.679688 215.96875 C 133.5625 216.238281 134.433594 216.546875 135.285156 216.902344 C 136.140625 217.253906 136.972656 217.648438 137.789062 218.085938 C 138.601562 218.519531 139.394531 218.996094 140.164062 219.507812 C 140.929688 220.023438 141.671875 220.570312 142.386719 221.15625 C 143.101562 221.742188 143.785156 222.363281 144.4375 223.015625 C 145.089844 223.667969 145.710938 224.351562 146.296875 225.066406 C 146.882812 225.78125 147.433594 226.523438 147.945312 227.289062 C 148.457031 228.058594 148.933594 228.851562 149.367188 229.664062 C 149.804688 230.480469 150.199219 231.3125 150.550781 232.167969 C 150.90625 233.019531 151.214844 233.890625 151.484375 234.773438 C 151.753906 235.65625 151.976562 236.550781 152.15625 237.457031 C 152.335938 238.363281 152.472656 239.277344 152.5625 240.195312 C 152.652344 241.117188 152.699219 242.039062 152.699219 242.960938 C 152.699219 243.886719 152.652344 244.808594 152.5625 245.726562 C 152.472656 246.644531 152.335938 247.558594 152.15625 248.464844 C 151.976562 249.371094 151.753906 250.265625 151.484375 251.148438 C 151.214844 252.035156 150.90625 252.902344 150.550781 253.757812 C 150.199219 254.609375 149.804688 255.445312 149.367188 256.257812 C 148.933594 257.074219 148.457031 257.863281 147.945312 258.632812 C 147.433594 259.402344 146.882812 260.140625 146.296875 260.855469 C 145.710938 261.570312 145.089844 262.253906 144.4375 262.90625 C 143.785156 263.558594 143.101562 264.179688 142.386719 264.765625 C 141.671875 265.351562 140.929688 265.902344 140.164062 266.414062 C 139.394531 266.929688 138.601562 267.402344 137.789062 267.839844 C 136.972656 268.273438 136.140625 268.667969 135.285156 269.023438 C 134.433594 269.375 133.5625 269.6875 132.679688 269.953125 C 131.796875 270.222656 130.902344 270.445312 129.996094 270.625 C 129.089844 270.808594 128.175781 270.941406 127.257812 271.03125 C 126.335938 271.125 125.414062 271.167969 124.492188 271.167969 C 123.566406 271.167969 122.644531 271.125 121.726562 271.03125 C 120.808594 270.941406 119.894531 270.808594 118.988281 270.625 C 118.082031 270.445312 117.1875 270.222656 116.304688 269.953125 C 115.417969 269.6875 114.550781 269.375 113.699219 269.023438 C 112.84375 268.667969 112.011719 268.273438 111.195312 267.839844 C 110.378906 267.402344 109.589844 266.929688 108.820312 266.414062 C 108.050781 265.902344 107.3125 265.351562 106.597656 264.765625 C 105.882812 264.179688 105.199219 263.558594 104.546875 262.90625 C 103.894531 262.253906 103.273438 261.570312 102.6875 260.855469 C 102.101562 260.140625 101.550781 259.402344 101.039062 258.632812 C 100.523438 257.863281 100.050781 257.074219 99.617188 256.257812 C 99.179688 255.445312 98.785156 254.609375 98.433594 253.757812 C 98.078125 252.902344 97.765625 252.035156 97.5 251.148438 C 97.230469 250.265625 97.007812 249.371094 96.828125 248.464844 C 96.644531 247.558594 96.511719 246.644531 96.421875 245.726562 C 96.328125 244.808594 96.285156 243.886719 96.285156 242.960938 C 96.285156 242.039062 96.328125 241.117188 96.421875 240.195312 C 96.511719 239.277344 96.644531 238.363281 96.828125 237.457031 C 97.007812 236.550781 97.230469 235.65625 97.5 234.773438 C 97.765625 233.890625 98.078125 233.019531 98.433594 232.167969 C 98.785156 231.3125 99.179688 230.480469 99.617188 229.664062 C 100.050781 228.851562 100.523438 228.058594 101.039062 227.289062 C 101.550781 226.523438 102.101562 225.78125 102.6875 225.066406 C 103.273438 224.351562 103.894531 223.667969 104.546875 223.015625 C 105.199219 222.363281 105.882812 221.742188 106.597656 221.15625 C 107.3125 220.570312 108.050781 220.023438 108.820312 219.507812 C 109.589844 218.996094 110.378906 218.519531 111.195312 218.085938 C 112.011719 217.648438 112.84375 217.253906 113.699219 216.902344 C 114.550781 216.546875 115.417969 216.238281 116.304688 215.96875 C 117.1875 215.699219 118.082031 215.476562 118.988281 215.296875 C 119.894531 215.117188 120.808594 214.980469 121.726562 214.890625 C 122.644531 214.800781 123.566406 214.753906 124.492188 214.753906 Z M 124.492188 214.753906 " fill-opacity="1" fill-rule="nonzero"/><path fill="#1dbade" d="M 68.078125 484.414062 L 68.078125 643.503906 C 68.078125 644.246094 68.148438 644.976562 68.292969 645.703125 C 68.4375 646.429688 68.652344 647.136719 68.9375 647.820312 C 69.21875 648.503906 69.566406 649.15625 69.980469 649.773438 C 70.390625 650.386719 70.859375 650.957031 71.382812 651.480469 C 71.90625 652.003906 72.476562 652.472656 73.09375 652.882812 C 73.707031 653.296875 74.359375 653.644531 75.042969 653.925781 C 75.726562 654.210938 76.433594 654.425781 77.160156 654.570312 C 77.886719 654.714844 78.621094 654.785156 79.359375 654.785156 C 80.101562 654.785156 80.835938 654.714844 81.5625 654.570312 C 82.289062 654.425781 82.992188 654.210938 83.679688 653.925781 C 84.363281 653.644531 85.011719 653.296875 85.628906 652.882812 C 86.246094 652.472656 86.816406 652.003906 87.339844 651.480469 C 87.863281 650.957031 88.332031 650.386719 88.742188 649.773438 C 89.152344 649.15625 89.5 648.503906 89.785156 647.820312 C 90.066406 647.136719 90.28125 646.429688 90.425781 645.703125 C 90.570312 644.976562 90.644531 644.246094 90.644531 643.503906 L 90.644531 372.714844 C 90.644531 371.972656 90.570312 371.238281 90.425781 370.511719 C 90.28125 369.785156 90.066406 369.082031 89.785156 368.398438 C 89.5 367.710938 89.152344 367.0625 88.742188 366.445312 C 88.332031 365.832031 87.863281 365.261719 87.339844 364.738281 C 86.816406 364.210938 86.246094 363.746094 85.628906 363.332031 C 85.011719 362.921875 84.363281 362.574219 83.679688 362.289062 C 82.992188 362.007812 82.289062 361.792969 81.5625 361.648438 C 80.835938 361.503906 80.101562 361.433594 79.359375 361.433594 C 78.621094 361.433594 77.886719 361.503906 77.160156 361.648438 C 76.433594 361.792969 75.726562 362.007812 75.042969 362.289062 C 74.359375 362.574219 73.707031 362.921875 73.09375 363.332031 C 72.476562 363.746094 71.90625 364.210938 71.382812 364.738281 C 70.859375 365.261719 70.390625 365.832031 69.980469 366.445312 C 69.566406 367.0625 69.21875 367.710938 68.9375 368.398438 C 68.652344 369.082031 68.4375 369.785156 68.292969 370.511719 C 68.148438 371.238281 68.078125 371.972656 68.078125 372.714844 L 68.078125 461.171875 C 60.40625 458.238281 56.792969 451.695312 56.792969 440.410156 L 56.792969 361.433594 C 56.792969 360.324219 56.847656 359.21875 56.957031 358.113281 C 57.066406 357.011719 57.230469 355.914062 57.445312 354.828125 C 57.660156 353.742188 57.929688 352.667969 58.253906 351.605469 C 58.574219 350.546875 58.945312 349.503906 59.371094 348.476562 C 59.796875 347.453125 60.269531 346.453125 60.792969 345.476562 C 61.3125 344.496094 61.882812 343.546875 62.5 342.625 C 63.113281 341.703125 63.773438 340.816406 64.476562 339.957031 C 65.179688 339.101562 65.925781 338.28125 66.707031 337.496094 C 67.492188 336.714844 68.3125 335.96875 69.171875 335.265625 C 70.027344 334.5625 70.917969 333.902344 71.839844 333.289062 C 72.757812 332.671875 73.710938 332.101562 74.6875 331.578125 C 75.664062 331.058594 76.664062 330.585938 77.691406 330.160156 C 78.714844 329.734375 79.757812 329.363281 80.816406 329.039062 C 81.878906 328.71875 82.953125 328.449219 84.039062 328.234375 C 85.128906 328.015625 86.222656 327.855469 87.324219 327.746094 C 88.429688 327.636719 89.535156 327.582031 90.644531 327.582031 L 113.210938 327.582031 C 113.949219 327.582031 114.683594 327.511719 115.410156 327.367188 C 116.136719 327.222656 116.84375 327.007812 117.527344 326.722656 C 118.210938 326.441406 118.863281 326.09375 119.476562 325.679688 C 120.09375 325.269531 120.664062 324.800781 121.1875 324.277344 C 121.710938 323.753906 122.179688 323.183594 122.589844 322.570312 C 123 321.953125 123.347656 321.300781 123.632812 320.617188 C 123.917969 319.933594 124.128906 319.226562 124.273438 318.5 C 124.417969 317.773438 124.492188 317.042969 124.492188 316.300781 C 124.492188 315.558594 124.417969 314.824219 124.273438 314.097656 C 124.128906 313.371094 123.917969 312.667969 123.632812 311.984375 C 123.347656 311.296875 123 310.648438 122.589844 310.03125 C 122.179688 309.414062 121.710938 308.847656 121.1875 308.320312 C 120.664062 307.796875 120.09375 307.332031 119.476562 306.917969 C 118.863281 306.507812 118.210938 306.160156 117.527344 305.875 C 116.84375 305.59375 116.136719 305.378906 115.410156 305.234375 C 114.683594 305.089844 113.949219 305.015625 113.210938 305.015625 L 90.644531 305.015625 C 88.796875 305.015625 86.953125 305.109375 85.113281 305.289062 C 83.273438 305.46875 81.449219 305.742188 79.636719 306.101562 C 77.824219 306.460938 76.035156 306.910156 74.265625 307.445312 C 72.5 307.984375 70.761719 308.605469 69.054688 309.3125 C 67.347656 310.019531 65.679688 310.808594 64.050781 311.679688 C 62.421875 312.550781 60.835938 313.5 59.300781 314.523438 C 57.765625 315.550781 56.28125 316.652344 54.855469 317.824219 C 53.425781 318.996094 52.058594 320.234375 50.753906 321.539062 C 49.445312 322.847656 48.207031 324.214844 47.035156 325.644531 C 45.863281 327.070312 44.761719 328.554688 43.738281 330.089844 C 42.710938 331.625 41.761719 333.207031 40.890625 334.839844 C 40.019531 336.46875 39.230469 338.136719 38.523438 339.84375 C 37.816406 341.550781 37.195312 343.289062 36.65625 345.054688 C 36.121094 346.824219 35.671875 348.613281 35.3125 350.425781 C 34.953125 352.238281 34.683594 354.0625 34.5 355.902344 C 34.320312 357.742188 34.230469 359.585938 34.230469 361.433594 L 34.230469 440.410156 C 34.101562 441.679688 34.035156 442.953125 34.03125 444.226562 C 34.023438 445.503906 34.078125 446.777344 34.191406 448.046875 C 34.304688 449.316406 34.480469 450.578125 34.710938 451.832031 C 34.945312 453.085938 35.238281 454.324219 35.585938 455.550781 C 35.9375 456.777344 36.34375 457.984375 36.808594 459.171875 C 37.273438 460.359375 37.792969 461.523438 38.367188 462.660156 C 38.941406 463.800781 39.566406 464.910156 40.246094 465.988281 C 40.921875 467.070312 41.652344 468.113281 42.429688 469.125 C 43.207031 470.136719 44.03125 471.105469 44.898438 472.039062 C 45.769531 472.972656 46.679688 473.863281 47.632812 474.710938 C 48.585938 475.554688 49.578125 476.355469 50.605469 477.109375 C 51.636719 477.863281 52.699219 478.566406 53.792969 479.21875 C 54.886719 479.871094 56.011719 480.472656 57.164062 481.019531 C 58.316406 481.566406 59.492188 482.058594 60.6875 482.492188 C 61.886719 482.929688 63.105469 483.308594 64.339844 483.628906 C 65.570312 483.949219 66.820312 484.210938 68.078125 484.414062 Z M 68.078125 484.414062 " fill-opacity="1" fill-rule="nonzero"/><path fill="#1dbade" d="M 135.773438 643.503906 L 135.773438 496.824219 C 135.773438 496.085938 135.703125 495.351562 135.558594 494.625 C 135.414062 493.898438 135.199219 493.191406 134.914062 492.507812 C 134.632812 491.824219 134.285156 491.171875 133.875 490.558594 C 133.460938 489.941406 132.992188 489.371094 132.46875 488.847656 C 131.945312 488.324219 131.375 487.855469 130.761719 487.445312 C 130.144531 487.03125 129.492188 486.6875 128.808594 486.402344 C 128.125 486.117188 127.417969 485.90625 126.691406 485.761719 C 125.964844 485.617188 125.234375 485.542969 124.492188 485.542969 C 123.75 485.542969 123.015625 485.617188 122.289062 485.761719 C 121.5625 485.90625 120.859375 486.117188 120.175781 486.402344 C 119.488281 486.6875 118.839844 487.03125 118.222656 487.445312 C 117.609375 487.855469 117.039062 488.324219 116.511719 488.847656 C 115.988281 489.371094 115.523438 489.941406 115.109375 490.558594 C 114.699219 491.171875 114.351562 491.824219 114.066406 492.507812 C 113.785156 493.191406 113.570312 493.898438 113.425781 494.625 C 113.28125 495.351562 113.210938 496.085938 113.210938 496.824219 L 113.210938 643.503906 C 113.210938 644.246094 113.28125 644.976562 113.425781 645.703125 C 113.570312 646.429688 113.785156 647.136719 114.066406 647.820312 C 114.351562 648.503906 114.699219 649.15625 115.109375 649.773438 C 115.523438 650.386719 115.988281 650.957031 116.511719 651.480469 C 117.039062 652.003906 117.609375 652.472656 118.222656 652.882812 C 118.839844 653.296875 119.488281 653.644531 120.175781 653.925781 C 120.859375 654.210938 121.5625 654.425781 122.289062 654.570312 C 123.015625 654.714844 123.75 654.785156 124.492188 654.785156 C 125.234375 654.785156 125.964844 654.714844 126.691406 654.570312 C 127.417969 654.425781 128.125 654.210938 128.808594 653.925781 C 129.492188 653.644531 130.144531 653.296875 130.761719 652.882812 C 131.375 652.472656 131.945312 652.003906 132.46875 651.480469 C 132.992188 650.957031 133.460938 650.386719 133.875 649.773438 C 134.285156 649.15625 134.632812 648.503906 134.914062 647.820312 C 135.199219 647.136719 135.414062 646.429688 135.558594 645.703125 C 135.703125 644.976562 135.773438 644.246094 135.773438 643.503906 Z M 135.773438 643.503906 " fill-opacity="1" fill-rule="nonzero"/><path fill="#1dbade" d="M 519.390625 271.167969 C 521.238281 271.167969 523.082031 271.078125 524.921875 270.898438 C 526.761719 270.714844 528.585938 270.445312 530.398438 270.085938 C 532.210938 269.722656 534 269.277344 535.769531 268.738281 C 537.535156 268.203125 539.273438 267.582031 540.980469 266.875 C 542.6875 266.167969 544.355469 265.378906 545.984375 264.507812 C 547.613281 263.636719 549.199219 262.6875 550.734375 261.660156 C 552.269531 260.636719 553.753906 259.535156 555.179688 258.363281 C 556.609375 257.191406 557.976562 255.953125 559.28125 254.644531 C 560.589844 253.339844 561.828125 251.972656 563 250.542969 C 564.171875 249.113281 565.273438 247.632812 566.296875 246.097656 C 567.324219 244.558594 568.273438 242.976562 569.144531 241.347656 C 570.015625 239.71875 570.804688 238.050781 571.511719 236.34375 C 572.21875 234.636719 572.839844 232.898438 573.378906 231.128906 C 573.914062 229.363281 574.363281 227.574219 574.722656 225.761719 C 575.082031 223.949219 575.355469 222.121094 575.535156 220.285156 C 575.714844 218.445312 575.804688 216.601562 575.804688 214.753906 C 575.804688 212.90625 575.714844 211.0625 575.535156 209.226562 C 575.355469 207.386719 575.082031 205.5625 574.722656 203.75 C 574.363281 201.9375 573.914062 200.144531 573.378906 198.378906 C 572.839844 196.609375 572.21875 194.871094 571.511719 193.164062 C 570.804688 191.457031 570.015625 189.789062 569.144531 188.160156 C 568.273438 186.53125 567.324219 184.949219 566.300781 183.414062 C 565.273438 181.875 564.171875 180.394531 563 178.964844 C 561.828125 177.539062 560.589844 176.171875 559.28125 174.863281 C 557.976562 173.558594 556.609375 172.316406 555.179688 171.144531 C 553.753906 169.972656 552.269531 168.875 550.734375 167.847656 C 549.199219 166.820312 547.613281 165.871094 545.984375 165 C 544.355469 164.128906 542.6875 163.339844 540.980469 162.632812 C 539.273438 161.925781 537.535156 161.304688 535.769531 160.769531 C 534 160.234375 532.210938 159.785156 530.398438 159.425781 C 528.585938 159.0625 526.761719 158.792969 524.921875 158.613281 C 523.082031 158.429688 521.238281 158.339844 519.390625 158.339844 C 517.542969 158.339844 515.703125 158.429688 513.863281 158.613281 C 512.023438 158.792969 510.199219 159.0625 508.386719 159.425781 C 506.574219 159.785156 504.785156 160.234375 503.015625 160.769531 C 501.246094 161.304688 499.511719 161.925781 497.804688 162.632812 C 496.097656 163.339844 494.429688 164.128906 492.796875 165 C 491.167969 165.871094 489.585938 166.820312 488.050781 167.847656 C 486.515625 168.875 485.03125 169.972656 483.601562 171.144531 C 482.175781 172.316406 480.808594 173.558594 479.5 174.863281 C 478.195312 176.171875 476.957031 177.539062 475.78125 178.964844 C 474.609375 180.394531 473.511719 181.875 472.484375 183.414062 C 471.457031 184.949219 470.511719 186.53125 469.640625 188.160156 C 468.769531 189.789062 467.980469 191.457031 467.273438 193.164062 C 466.566406 194.871094 465.941406 196.609375 465.40625 198.378906 C 464.871094 200.144531 464.421875 201.9375 464.0625 203.75 C 463.703125 205.5625 463.429688 207.386719 463.25 209.226562 C 463.066406 211.0625 462.976562 212.90625 462.976562 214.753906 C 462.976562 216.601562 463.066406 218.445312 463.25 220.285156 C 463.429688 222.121094 463.703125 223.949219 464.0625 225.761719 C 464.421875 227.574219 464.871094 229.363281 465.40625 231.128906 C 465.941406 232.898438 466.566406 234.636719 467.273438 236.34375 C 467.980469 238.050781 468.769531 239.71875 469.640625 241.347656 C 470.511719 242.976562 471.457031 244.558594 472.484375 246.097656 C 473.511719 247.632812 474.609375 249.113281 475.78125 250.542969 C 476.957031 251.972656 478.195312 253.339844 479.5 254.644531 C 480.808594 255.953125 482.175781 257.191406 483.601562 258.363281 C 485.03125 259.535156 486.515625 260.636719 488.050781 261.660156 C 489.585938 262.6875 491.167969 263.636719 492.796875 264.507812 C 494.429688 265.378906 496.097656 266.167969 497.804688 266.875 C 499.511719 267.582031 501.246094 268.203125 503.015625 268.738281 C 504.785156 269.277344 506.574219 269.722656 508.386719 270.085938 C 510.199219 270.445312 512.023438 270.714844 513.863281 270.898438 C 515.703125 271.078125 517.542969 271.167969 519.390625 271.167969 Z M 519.390625 180.90625 C 520.5 180.90625 521.605469 180.960938 522.710938 181.070312 C 523.8125 181.175781 524.910156 181.339844 525.996094 181.554688 C 527.082031 181.773438 528.15625 182.042969 529.21875 182.363281 C 530.277344 182.683594 531.320312 183.058594 532.34375 183.484375 C 533.371094 183.90625 534.371094 184.378906 535.347656 184.902344 C 536.324219 185.425781 537.277344 185.996094 538.199219 186.609375 C 539.117188 187.226562 540.007812 187.886719 540.867188 188.589844 C 541.722656 189.292969 542.542969 190.035156 543.328125 190.820312 C 544.109375 191.605469 544.855469 192.425781 545.558594 193.28125 C 546.261719 194.136719 546.921875 195.027344 547.535156 195.949219 C 548.152344 196.871094 548.722656 197.820312 549.242188 198.796875 C 549.765625 199.777344 550.238281 200.777344 550.664062 201.800781 C 551.089844 202.824219 551.460938 203.867188 551.78125 204.929688 C 552.105469 205.988281 552.375 207.0625 552.589844 208.152344 C 552.804688 209.238281 552.96875 210.332031 553.078125 211.4375 C 553.1875 212.539062 553.242188 213.644531 553.242188 214.753906 C 553.242188 215.863281 553.1875 216.96875 553.078125 218.074219 C 552.96875 219.175781 552.804688 220.269531 552.589844 221.359375 C 552.375 222.445312 552.105469 223.519531 551.78125 224.582031 C 551.460938 225.640625 551.089844 226.683594 550.664062 227.707031 C 550.238281 228.730469 549.765625 229.734375 549.242188 230.710938 C 548.722656 231.6875 548.152344 232.636719 547.535156 233.558594 C 546.921875 234.480469 546.261719 235.371094 545.558594 236.226562 C 544.855469 237.085938 544.109375 237.90625 543.328125 238.6875 C 542.542969 239.472656 541.722656 240.214844 540.867188 240.917969 C 540.007812 241.625 539.117188 242.28125 538.199219 242.898438 C 537.277344 243.515625 536.324219 244.082031 535.347656 244.605469 C 534.371094 245.128906 533.371094 245.601562 532.34375 246.027344 C 531.320312 246.449219 530.277344 246.824219 529.21875 247.144531 C 528.15625 247.46875 527.082031 247.738281 525.996094 247.953125 C 524.910156 248.167969 523.8125 248.332031 522.710938 248.441406 C 521.605469 248.546875 520.5 248.601562 519.390625 248.601562 C 518.285156 248.601562 517.175781 248.546875 516.074219 248.441406 C 514.972656 248.332031 513.875 248.167969 512.789062 247.953125 C 511.703125 247.738281 510.628906 247.46875 509.566406 247.144531 C 508.503906 246.824219 507.464844 246.449219 506.4375 246.027344 C 505.414062 245.601562 504.414062 245.128906 503.4375 244.605469 C 502.457031 244.082031 501.507812 243.515625 500.585938 242.898438 C 499.664062 242.28125 498.777344 241.625 497.917969 240.917969 C 497.0625 240.214844 496.242188 239.472656 495.457031 238.6875 C 494.671875 237.90625 493.929688 237.085938 493.226562 236.226562 C 492.523438 235.371094 491.863281 234.480469 491.246094 233.558594 C 490.632812 232.636719 490.0625 231.6875 489.539062 230.710938 C 489.019531 229.734375 488.542969 228.730469 488.121094 227.707031 C 487.695312 226.683594 487.324219 225.640625 487 224.582031 C 486.679688 223.519531 486.410156 222.445312 486.195312 221.359375 C 485.976562 220.269531 485.816406 219.175781 485.707031 218.074219 C 485.597656 216.96875 485.542969 215.863281 485.542969 214.753906 C 485.542969 213.644531 485.597656 212.539062 485.707031 211.4375 C 485.816406 210.332031 485.976562 209.238281 486.195312 208.152344 C 486.410156 207.0625 486.679688 205.988281 487 204.929688 C 487.324219 203.867188 487.695312 202.824219 488.121094 201.800781 C 488.542969 200.777344 489.019531 199.777344 489.539062 198.796875 C 490.0625 197.820312 490.632812 196.871094 491.246094 195.949219 C 491.863281 195.027344 492.523438 194.136719 493.226562 193.28125 C 493.929688 192.425781 494.671875 191.605469 495.457031 190.820312 C 496.242188 190.035156 497.0625 189.292969 497.917969 188.589844 C 498.777344 187.886719 499.664062 187.226562 500.585938 186.609375 C 501.507812 185.996094 502.457031 185.425781 503.4375 184.902344 C 504.414062 184.378906 505.414062 183.90625 506.4375 183.484375 C 507.464844 183.058594 508.503906 182.683594 509.566406 182.363281 C 510.628906 182.042969 511.703125 181.773438 512.789062 181.554688 C 513.875 181.339844 514.972656 181.175781 516.074219 181.070312 C 517.175781 180.960938 518.285156 180.90625 519.390625 180.90625 Z M 519.390625 180.90625 " fill-opacity="1" fill-rule="nonzero"/><path fill="#1dbade" d="M 575.804688 338.867188 C 575.066406 338.867188 574.332031 338.9375 573.605469 339.082031 C 572.878906 339.226562 572.171875 339.441406 571.488281 339.726562 C 570.804688 340.007812 570.152344 340.355469 569.539062 340.765625 C 568.921875 341.179688 568.351562 341.648438 567.828125 342.171875 C 567.304688 342.695312 566.835938 343.265625 566.425781 343.878906 C 566.011719 344.496094 565.664062 345.148438 565.382812 345.832031 C 565.097656 346.515625 564.886719 347.222656 564.742188 347.949219 C 564.597656 348.675781 564.523438 349.40625 564.523438 350.148438 L 564.523438 643.503906 C 564.523438 644.246094 564.597656 644.976562 564.742188 645.703125 C 564.886719 646.429688 565.097656 647.136719 565.382812 647.820312 C 565.664062 648.503906 566.011719 649.15625 566.425781 649.773438 C 566.835938 650.386719 567.304688 650.957031 567.828125 651.480469 C 568.351562 652.003906 568.921875 652.472656 569.539062 652.882812 C 570.152344 653.296875 570.804688 653.644531 571.488281 653.925781 C 572.171875 654.210938 572.878906 654.425781 573.605469 654.570312 C 574.332031 654.714844 575.066406 654.785156 575.804688 654.785156 C 576.546875 654.785156 577.28125 654.714844 578.007812 654.570312 C 578.734375 654.425781 579.441406 654.210938 580.125 653.925781 C 580.808594 653.644531 581.457031 653.296875 582.074219 652.882812 C 582.691406 652.472656 583.261719 652.003906 583.785156 651.480469 C 584.308594 650.957031 584.777344 650.386719 585.1875 649.773438 C 585.597656 649.15625 585.945312 648.503906 586.230469 647.820312 C 586.515625 647.136719 586.726562 646.429688 586.871094 645.703125 C 587.015625 644.976562 587.089844 644.246094 587.089844 643.503906 L 587.089844 495.921875 C 612.8125 491.75 632.222656 473.359375 632.222656 451.695312 L 632.222656 350.148438 C 632.222656 312.800781 596.792969 282.453125 553.242188 282.453125 L 530.675781 282.453125 C 529.933594 282.453125 529.199219 282.523438 528.472656 282.667969 C 527.746094 282.8125 527.042969 283.027344 526.355469 283.3125 C 525.671875 283.59375 525.023438 283.941406 524.40625 284.351562 C 523.789062 284.765625 523.21875 285.234375 522.695312 285.757812 C 522.171875 286.28125 521.707031 286.851562 521.292969 287.464844 C 520.882812 288.082031 520.535156 288.730469 520.25 289.417969 C 519.96875 290.101562 519.753906 290.808594 519.609375 291.535156 C 519.464844 292.261719 519.390625 292.992188 519.390625 293.734375 C 519.390625 294.476562 519.464844 295.210938 519.609375 295.9375 C 519.753906 296.664062 519.96875 297.367188 520.25 298.050781 C 520.535156 298.738281 520.882812 299.386719 521.292969 300.003906 C 521.707031 300.617188 522.171875 301.1875 522.695312 301.710938 C 523.21875 302.238281 523.789062 302.703125 524.40625 303.117188 C 525.023438 303.527344 525.671875 303.875 526.355469 304.160156 C 527.042969 304.441406 527.746094 304.65625 528.472656 304.800781 C 529.199219 304.945312 529.933594 305.015625 530.675781 305.015625 L 553.242188 305.015625 C 584.382812 305.015625 609.65625 325.214844 609.65625 350.148438 L 609.65625 451.695312 C 609.65625 461.285156 600.066406 469.632812 587.089844 472.792969 L 587.089844 350.148438 C 587.089844 349.40625 587.015625 348.675781 586.871094 347.949219 C 586.726562 347.222656 586.515625 346.515625 586.230469 345.832031 C 585.945312 345.148438 585.597656 344.496094 585.1875 343.878906 C 584.777344 343.265625 584.308594 342.695312 583.785156 342.171875 C 583.261719 341.648438 582.691406 341.179688 582.074219 340.765625 C 581.457031 340.355469 580.808594 340.007812 580.125 339.726562 C 579.441406 339.441406 578.734375 339.226562 578.007812 339.082031 C 577.28125 338.9375 576.546875 338.867188 575.804688 338.867188 Z M 575.804688 338.867188 " fill-opacity="1" fill-rule="nonzero"/><path fill="#1dbade" d="M 508.109375 496.824219 L 508.109375 643.503906 C 508.109375 644.246094 508.179688 644.976562 508.324219 645.703125 C 508.46875 646.429688 508.683594 647.136719 508.96875 647.820312 C 509.25 648.503906 509.597656 649.15625 510.011719 649.773438 C 510.421875 650.386719 510.890625 650.957031 511.414062 651.480469 C 511.9375 652.003906 512.507812 652.472656 513.125 652.882812 C 513.738281 653.296875 514.390625 653.644531 515.074219 653.925781 C 515.757812 654.210938 516.464844 654.425781 517.191406 654.570312 C 517.917969 654.714844 518.652344 654.785156 519.390625 654.785156 C 520.132812 654.785156 520.867188 654.714844 521.59375 654.570312 C 522.320312 654.425781 523.023438 654.210938 523.710938 653.925781 C 524.394531 653.644531 525.042969 653.296875 525.660156 652.882812 C 526.277344 652.472656 526.847656 652.003906 527.371094 651.480469 C 527.894531 650.957031 528.363281 650.386719 528.773438 649.773438 C 529.183594 649.15625 529.53125 648.503906 529.816406 647.820312 C 530.097656 647.136719 530.3125 646.429688 530.457031 645.703125 C 530.601562 644.976562 530.675781 644.246094 530.675781 643.503906 L 530.675781 496.824219 C 530.675781 496.085938 530.601562 495.351562 530.457031 494.625 C 530.3125 493.898438 530.097656 493.191406 529.816406 492.507812 C 529.53125 491.824219 529.183594 491.171875 528.773438 490.558594 C 528.363281 489.941406 527.894531 489.371094 527.371094 488.847656 C 526.847656 488.324219 526.277344 487.855469 525.660156 487.445312 C 525.042969 487.03125 524.394531 486.6875 523.710938 486.402344 C 523.023438 486.117188 522.320312 485.90625 521.59375 485.761719 C 520.867188 485.617188 520.132812 485.542969 519.390625 485.542969 C 518.652344 485.542969 517.917969 485.617188 517.191406 485.761719 C 516.464844 485.90625 515.757812 486.117188 515.074219 486.402344 C 514.390625 486.6875 513.738281 487.03125 513.125 487.445312 C 512.507812 487.855469 511.9375 488.324219 511.414062 488.847656 C 510.890625 489.371094 510.421875 489.941406 510.011719 490.558594 C 509.597656 491.171875 509.25 491.824219 508.96875 492.507812 C 508.683594 493.191406 508.46875 493.898438 508.324219 494.625 C 508.179688 495.351562 508.109375 496.085938 508.109375 496.824219 Z M 508.109375 496.824219 " fill-opacity="1" fill-rule="nonzero"/><path fill="#1dbade" d="M 643.503906 293.734375 C 645.167969 293.734375 646.824219 293.652344 648.480469 293.488281 C 650.136719 293.328125 651.777344 293.082031 653.410156 292.757812 C 655.039062 292.433594 656.652344 292.03125 658.242188 291.546875 C 659.832031 291.066406 661.398438 290.507812 662.933594 289.871094 C 664.46875 289.234375 665.972656 288.523438 667.4375 287.738281 C 668.902344 286.957031 670.328125 286.101562 671.710938 285.179688 C 673.09375 284.253906 674.429688 283.265625 675.714844 282.210938 C 677 281.15625 678.230469 280.039062 679.40625 278.863281 C 680.582031 277.6875 681.695312 276.457031 682.75 275.171875 C 683.804688 273.886719 684.796875 272.550781 685.71875 271.167969 C 686.644531 269.785156 687.496094 268.363281 688.28125 266.894531 C 689.066406 265.429688 689.773438 263.929688 690.410156 262.390625 C 691.046875 260.855469 691.609375 259.292969 692.089844 257.699219 C 692.574219 256.109375 692.976562 254.496094 693.300781 252.867188 C 693.625 251.234375 693.867188 249.59375 694.03125 247.9375 C 694.195312 246.285156 694.277344 244.625 694.277344 242.960938 C 694.277344 241.300781 694.195312 239.640625 694.03125 237.984375 C 693.867188 236.332031 693.625 234.6875 693.300781 233.054688 C 692.976562 231.425781 692.574219 229.8125 692.089844 228.222656 C 691.609375 226.632812 691.046875 225.066406 690.410156 223.53125 C 689.773438 221.996094 689.066406 220.492188 688.28125 219.027344 C 687.496094 217.5625 686.644531 216.136719 685.71875 214.753906 C 684.796875 213.371094 683.804688 212.039062 682.75 210.75 C 681.695312 209.464844 680.582031 208.234375 679.40625 207.058594 C 678.230469 205.882812 677 204.769531 675.714844 203.714844 C 674.429688 202.660156 673.09375 201.667969 671.710938 200.746094 C 670.328125 199.820312 668.902344 198.96875 667.4375 198.183594 C 665.972656 197.398438 664.46875 196.691406 662.933594 196.054688 C 661.398438 195.417969 659.832031 194.859375 658.242188 194.375 C 656.652344 193.890625 655.039062 193.488281 653.410156 193.164062 C 651.777344 192.839844 650.136719 192.597656 648.480469 192.433594 C 646.824219 192.269531 645.167969 192.1875 643.503906 192.1875 C 641.839844 192.1875 640.183594 192.269531 638.527344 192.433594 C 636.871094 192.597656 635.230469 192.839844 633.597656 193.164062 C 631.96875 193.488281 630.355469 193.890625 628.765625 194.375 C 627.171875 194.859375 625.609375 195.417969 624.074219 196.054688 C 622.539062 196.691406 621.035156 197.398438 619.570312 198.183594 C 618.101562 198.96875 616.679688 199.820312 615.296875 200.746094 C 613.914062 201.667969 612.578125 202.660156 611.292969 203.714844 C 610.007812 204.769531 608.777344 205.882812 607.601562 207.058594 C 606.425781 208.234375 605.3125 209.464844 604.253906 210.75 C 603.199219 212.039062 602.210938 213.371094 601.289062 214.753906 C 600.363281 216.136719 599.507812 217.5625 598.726562 219.027344 C 597.941406 220.492188 597.230469 221.996094 596.59375 223.53125 C 595.960938 225.066406 595.398438 226.632812 594.917969 228.222656 C 594.433594 229.8125 594.03125 231.425781 593.707031 233.054688 C 593.382812 234.6875 593.136719 236.332031 592.976562 237.984375 C 592.8125 239.640625 592.730469 241.300781 592.730469 242.960938 C 592.734375 244.625 592.820312 246.28125 592.984375 247.933594 C 593.152344 249.589844 593.398438 251.230469 593.726562 252.859375 C 594.050781 254.488281 594.457031 256.097656 594.941406 257.6875 C 595.425781 259.277344 595.988281 260.839844 596.625 262.375 C 597.261719 263.910156 597.972656 265.410156 598.757812 266.875 C 599.542969 268.339844 600.398438 269.761719 601.320312 271.144531 C 602.246094 272.523438 603.234375 273.855469 604.289062 275.140625 C 605.34375 276.425781 606.460938 277.65625 607.632812 278.832031 C 608.808594 280.003906 610.039062 281.121094 611.324219 282.175781 C 612.609375 283.230469 613.941406 284.21875 615.324219 285.144531 C 616.703125 286.066406 618.125 286.921875 619.589844 287.707031 C 621.058594 288.492188 622.554688 289.203125 624.089844 289.839844 C 625.625 290.476562 627.1875 291.039062 628.777344 291.523438 C 630.367188 292.007812 631.976562 292.414062 633.605469 292.742188 C 635.234375 293.066406 636.878906 293.3125 638.53125 293.480469 C 640.183594 293.644531 641.839844 293.730469 643.503906 293.734375 Z M 643.503906 214.753906 C 644.425781 214.753906 645.347656 214.800781 646.269531 214.890625 C 647.1875 214.980469 648.101562 215.117188 649.007812 215.296875 C 649.914062 215.476562 650.808594 215.699219 651.691406 215.96875 C 652.574219 216.238281 653.445312 216.546875 654.296875 216.902344 C 655.152344 217.253906 655.984375 217.648438 656.800781 218.085938 C 657.613281 218.519531 658.40625 218.996094 659.175781 219.507812 C 659.941406 220.023438 660.683594 220.570312 661.398438 221.15625 C 662.113281 221.742188 662.796875 222.363281 663.449219 223.015625 C 664.101562 223.667969 664.722656 224.351562 665.308594 225.066406 C 665.894531 225.78125 666.445312 226.523438 666.957031 227.289062 C 667.46875 228.058594 667.945312 228.851562 668.378906 229.664062 C 668.816406 230.480469 669.210938 231.3125 669.5625 232.167969 C 669.917969 233.019531 670.226562 233.890625 670.496094 234.773438 C 670.765625 235.65625 670.988281 236.550781 671.167969 237.457031 C 671.347656 238.363281 671.484375 239.277344 671.574219 240.195312 C 671.664062 241.117188 671.710938 242.039062 671.710938 242.960938 C 671.710938 243.886719 671.664062 244.808594 671.574219 245.726562 C 671.484375 246.644531 671.347656 247.558594 671.167969 248.464844 C 670.988281 249.371094 670.765625 250.265625 670.496094 251.148438 C 670.226562 252.035156 669.917969 252.902344 669.5625 253.757812 C 669.210938 254.609375 668.816406 255.445312 668.378906 256.257812 C 667.945312 257.074219 667.46875 257.863281 666.957031 258.632812 C 666.445312 259.402344 665.894531 260.140625 665.308594 260.855469 C 664.722656 261.570312 664.101562 262.253906 663.449219 262.90625 C 662.796875 263.558594 662.113281 264.179688 661.398438 264.765625 C 660.683594 265.351562 659.941406 265.902344 659.175781 266.414062 C 658.40625 266.929688 657.613281 267.402344 656.800781 267.839844 C 655.984375 268.273438 655.152344 268.667969 654.296875 269.023438 C 653.445312 269.375 652.574219 269.6875 651.691406 269.953125 C 650.808594 270.222656 649.914062 270.445312 649.007812 270.625 C 648.101562 270.808594 647.1875 270.941406 646.269531 271.03125 C 645.347656 271.125 644.425781 271.167969 643.503906 271.167969 C 642.578125 271.167969 641.65625 271.125 640.738281 271.03125 C 639.820312 270.941406 638.90625 270.808594 638 270.625 C 637.09375 270.445312 636.199219 270.222656 635.316406 269.953125 C 634.429688 269.6875 633.5625 269.375 632.710938 269.023438 C 631.855469 268.667969 631.023438 268.273438 630.207031 267.839844 C 629.390625 267.402344 628.601562 266.929688 627.832031 266.414062 C 627.0625 265.902344 626.324219 265.351562 625.609375 264.765625 C 624.894531 264.179688 624.210938 263.558594 623.558594 262.90625 C 622.90625 262.253906 622.285156 261.570312 621.699219 260.855469 C 621.113281 260.140625 620.5625 259.402344 620.050781 258.632812 C 619.535156 257.863281 619.0625 257.074219 618.628906 256.257812 C 618.191406 255.445312 617.796875 254.609375 617.445312 253.757812 C 617.089844 252.902344 616.777344 252.035156 616.511719 251.148438 C 616.242188 250.265625 616.019531 249.371094 615.839844 248.464844 C 615.660156 247.558594 615.523438 246.644531 615.433594 245.726562 C 615.339844 244.808594 615.296875 243.886719 615.296875 242.960938 C 615.296875 242.039062 615.339844 241.117188 615.433594 240.195312 C 615.523438 239.277344 615.660156 238.363281 615.839844 237.457031 C 616.019531 236.550781 616.242188 235.65625 616.511719 234.773438 C 616.777344 233.890625 617.089844 233.019531 617.445312 232.167969 C 617.796875 231.3125 618.191406 230.480469 618.628906 229.664062 C 619.0625 228.851562 619.535156 228.058594 620.050781 227.289062 C 620.5625 226.523438 621.113281 225.78125 621.699219 225.066406 C 622.285156 224.351562 622.90625 223.667969 623.558594 223.015625 C 624.210938 222.363281 624.894531 221.742188 625.609375 221.15625 C 626.324219 220.570312 627.0625 220.023438 627.832031 219.507812 C 628.601562 218.996094 629.390625 218.519531 630.207031 218.085938 C 631.023438 217.648438 631.855469 217.253906 632.710938 216.902344 C 633.5625 216.546875 634.429688 216.238281 635.316406 215.96875 C 636.199219 215.699219 637.09375 215.476562 638 215.296875 C 638.90625 215.117188 639.820312 214.980469 640.738281 214.890625 C 641.65625 214.800781 642.578125 214.753906 643.503906 214.753906 Z M 643.503906 214.753906 " fill-opacity="1" fill-rule="nonzero"/><path fill="#1dbade" d="M 643.503906 485.542969 C 642.761719 485.542969 642.027344 485.617188 641.300781 485.761719 C 640.574219 485.90625 639.871094 486.117188 639.1875 486.402344 C 638.5 486.6875 637.851562 487.035156 637.234375 487.445312 C 636.621094 487.855469 636.050781 488.324219 635.527344 488.847656 C 635 489.371094 634.535156 489.941406 634.121094 490.558594 C 633.710938 491.171875 633.363281 491.824219 633.078125 492.507812 C 632.796875 493.191406 632.582031 493.898438 632.4375 494.625 C 632.292969 495.351562 632.21875 496.085938 632.222656 496.824219 L 632.222656 643.503906 C 632.21875 644.246094 632.292969 644.976562 632.4375 645.703125 C 632.582031 646.429688 632.796875 647.136719 633.078125 647.820312 C 633.363281 648.503906 633.710938 649.15625 634.121094 649.773438 C 634.535156 650.386719 635 650.957031 635.523438 651.480469 C 636.050781 652.003906 636.617188 652.472656 637.234375 652.882812 C 637.851562 653.296875 638.5 653.644531 639.1875 653.925781 C 639.871094 654.210938 640.574219 654.425781 641.300781 654.570312 C 642.027344 654.714844 642.761719 654.785156 643.503906 654.785156 C 644.246094 654.785156 644.976562 654.714844 645.703125 654.570312 C 646.429688 654.425781 647.136719 654.210938 647.820312 653.925781 C 648.503906 653.644531 649.15625 653.296875 649.773438 652.882812 C 650.386719 652.472656 650.957031 652.003906 651.480469 651.480469 C 652.003906 650.957031 652.472656 650.386719 652.886719 649.773438 C 653.296875 649.15625 653.644531 648.503906 653.925781 647.820312 C 654.210938 647.136719 654.425781 646.429688 654.570312 645.703125 C 654.714844 644.976562 654.785156 644.246094 654.785156 643.503906 L 654.785156 496.824219 C 654.785156 496.085938 654.714844 495.351562 654.570312 494.625 C 654.425781 493.898438 654.210938 493.191406 653.925781 492.507812 C 653.644531 491.824219 653.296875 491.171875 652.886719 490.558594 C 652.472656 489.941406 652.003906 489.371094 651.480469 488.847656 C 650.957031 488.324219 650.386719 487.855469 649.773438 487.445312 C 649.15625 487.03125 648.503906 486.6875 647.820312 486.402344 C 647.136719 486.117188 646.429688 485.90625 645.703125 485.761719 C 644.976562 485.617188 644.246094 485.542969 643.503906 485.542969 Z M 643.503906 485.542969 " fill-opacity="1" fill-rule="nonzero"/><path fill="#1dbade" d="M 677.351562 305.015625 L 654.785156 305.015625 C 654.046875 305.015625 653.3125 305.089844 652.585938 305.234375 C 651.859375 305.378906 651.152344 305.59375 650.46875 305.875 C 649.785156 306.160156 649.132812 306.507812 648.519531 306.917969 C 647.902344 307.332031 647.332031 307.796875 646.808594 308.320312 C 646.285156 308.847656 645.816406 309.414062 645.40625 310.03125 C 644.992188 310.648438 644.644531 311.296875 644.363281 311.984375 C 644.078125 312.667969 643.863281 313.371094 643.71875 314.097656 C 643.574219 314.824219 643.503906 315.558594 643.503906 316.300781 C 643.503906 317.042969 643.574219 317.773438 643.71875 318.5 C 643.863281 319.226562 644.078125 319.933594 644.363281 320.617188 C 644.644531 321.300781 644.992188 321.953125 645.40625 322.570312 C 645.816406 323.183594 646.285156 323.753906 646.808594 324.277344 C 647.332031 324.800781 647.902344 325.269531 648.519531 325.679688 C 649.132812 326.09375 649.785156 326.441406 650.46875 326.722656 C 651.152344 327.007812 651.859375 327.222656 652.585938 327.367188 C 653.3125 327.511719 654.046875 327.582031 654.785156 327.582031 L 677.351562 327.582031 C 678.460938 327.582031 679.566406 327.636719 680.671875 327.746094 C 681.773438 327.855469 682.867188 328.015625 683.957031 328.234375 C 685.042969 328.449219 686.117188 328.71875 687.179688 329.039062 C 688.238281 329.363281 689.28125 329.734375 690.304688 330.160156 C 691.328125 330.582031 692.332031 331.058594 693.308594 331.578125 C 694.285156 332.101562 695.234375 332.671875 696.15625 333.289062 C 697.078125 333.902344 697.96875 334.5625 698.824219 335.265625 C 699.683594 335.96875 700.503906 336.714844 701.285156 337.496094 C 702.070312 338.28125 702.8125 339.101562 703.515625 339.957031 C 704.222656 340.816406 704.878906 341.703125 705.496094 342.625 C 706.113281 343.546875 706.679688 344.496094 707.203125 345.476562 C 707.726562 346.453125 708.199219 347.453125 708.625 348.476562 C 709.046875 349.503906 709.421875 350.546875 709.742188 351.605469 C 710.066406 352.667969 710.335938 353.742188 710.550781 354.828125 C 710.765625 355.914062 710.929688 357.011719 711.039062 358.113281 C 711.148438 359.21875 711.199219 360.324219 711.199219 361.433594 L 711.199219 440.410156 C 711.199219 451.695312 707.589844 458.238281 699.917969 461.171875 L 699.917969 372.714844 C 699.917969 371.972656 699.84375 371.238281 699.699219 370.511719 C 699.554688 369.785156 699.34375 369.082031 699.058594 368.398438 C 698.777344 367.710938 698.429688 367.0625 698.015625 366.445312 C 697.605469 365.832031 697.136719 365.261719 696.613281 364.738281 C 696.089844 364.210938 695.519531 363.746094 694.902344 363.332031 C 694.289062 362.921875 693.636719 362.574219 692.953125 362.289062 C 692.269531 362.007812 691.5625 361.792969 690.835938 361.648438 C 690.109375 361.503906 689.375 361.433594 688.636719 361.433594 C 687.894531 361.433594 687.160156 361.503906 686.433594 361.648438 C 685.707031 361.792969 685 362.007812 684.316406 362.289062 C 683.632812 362.574219 682.984375 362.921875 682.367188 363.332031 C 681.75 363.746094 681.179688 364.210938 680.65625 364.738281 C 680.132812 365.261719 679.664062 365.832031 679.253906 366.445312 C 678.84375 367.0625 678.496094 367.710938 678.210938 368.398438 C 677.925781 369.082031 677.714844 369.785156 677.570312 370.511719 C 677.425781 371.238281 677.351562 371.972656 677.351562 372.714844 L 677.351562 643.503906 C 677.351562 644.246094 677.425781 644.976562 677.570312 645.703125 C 677.714844 646.429688 677.925781 647.136719 678.210938 647.820312 C 678.496094 648.503906 678.84375 649.15625 679.253906 649.773438 C 679.664062 650.386719 680.132812 650.957031 680.65625 651.480469 C 681.179688 652.003906 681.75 652.472656 682.367188 652.882812 C 682.984375 653.296875 683.632812 653.644531 684.316406 653.925781 C 685 654.210938 685.707031 654.425781 686.433594 654.570312 C 687.160156 654.714844 687.894531 654.785156 688.636719 654.785156 C 689.375 654.785156 690.109375 654.714844 690.835938 654.570312 C 691.5625 654.425781 692.269531 654.210938 692.953125 653.925781 C 693.636719 653.644531 694.289062 653.296875 694.902344 652.882812 C 695.519531 652.472656 696.089844 652.003906 696.613281 651.480469 C 697.136719 650.957031 697.605469 650.386719 698.015625 649.773438 C 698.429688 649.15625 698.777344 648.503906 699.058594 647.820312 C 699.34375 647.136719 699.554688 646.429688 699.699219 645.703125 C 699.84375 644.976562 699.917969 644.246094 699.917969 643.503906 L 699.917969 484.414062 C 701.175781 484.210938 702.421875 483.949219 703.65625 483.628906 C 704.890625 483.308594 706.109375 482.929688 707.304688 482.492188 C 708.503906 482.058594 709.679688 481.566406 710.832031 481.019531 C 711.984375 480.472656 713.105469 479.871094 714.203125 479.21875 C 715.296875 478.566406 716.359375 477.863281 717.390625 477.109375 C 718.417969 476.355469 719.410156 475.554688 720.363281 474.710938 C 721.316406 473.863281 722.226562 472.972656 723.097656 472.039062 C 723.964844 471.105469 724.789062 470.136719 725.566406 469.125 C 726.34375 468.113281 727.070312 467.070312 727.75 465.988281 C 728.429688 464.910156 729.054688 463.800781 729.628906 462.660156 C 730.203125 461.523438 730.722656 460.359375 731.1875 459.171875 C 731.652344 457.984375 732.058594 456.777344 732.410156 455.550781 C 732.757812 454.324219 733.050781 453.085938 733.285156 451.832031 C 733.515625 450.578125 733.691406 449.316406 733.804688 448.046875 C 733.917969 446.777344 733.972656 445.503906 733.964844 444.226562 C 733.960938 442.953125 733.894531 441.679688 733.765625 440.410156 L 733.765625 361.433594 C 733.765625 359.585938 733.675781 357.742188 733.496094 355.902344 C 733.3125 354.0625 733.042969 352.238281 732.683594 350.425781 C 732.320312 348.613281 731.875 346.824219 731.335938 345.054688 C 730.800781 343.289062 730.179688 341.550781 729.472656 339.84375 C 728.765625 338.136719 727.976562 336.46875 727.105469 334.839844 C 726.234375 333.207031 725.285156 331.625 724.257812 330.089844 C 723.234375 328.554688 722.132812 327.070312 720.960938 325.644531 C 719.789062 324.214844 718.550781 322.847656 717.242188 321.539062 C 715.9375 320.234375 714.570312 318.996094 713.140625 317.824219 C 711.710938 316.652344 710.230469 315.550781 708.695312 314.523438 C 707.15625 313.5 705.574219 312.550781 703.945312 311.679688 C 702.316406 310.808594 700.648438 310.019531 698.941406 309.3125 C 697.234375 308.605469 695.496094 307.984375 693.726562 307.445312 C 691.960938 306.910156 690.171875 306.460938 688.359375 306.101562 C 686.546875 305.742188 684.71875 305.46875 682.882812 305.289062 C 681.042969 305.109375 679.199219 305.015625 677.351562 305.015625 Z M 677.351562 305.015625 " fill-opacity="1" fill-rule="nonzero"/><g clip-path="url(#bf0eab261c)"><path fill="#1dbade" d="M 383.996094 401.398438 C 389.484375 401.398438 393.933594 405.847656 393.933594 411.335938 C 393.933594 416.824219 389.484375 421.273438 383.996094 421.273438 C 378.507812 421.273438 374.058594 416.824219 374.058594 411.335938 C 374.058594 405.847656 378.507812 401.398438 383.996094 401.398438 Z M 383.996094 401.398438 " fill-opacity="1" fill-rule="evenodd"/></g></svg>